<?xml version="1.0" encoding="utf-8"?>
<!-- Generator: Adobe Illustrator 22.0.1, SVG Export Plug-In . SVG Version: 6.00 Build 0)  -->
<svg version="1.1" id="Lager_1" xmlns="http://www.w3.org/2000/svg" xmlns:xlink="http://www.w3.org/1999/xlink" x="0px" y="0px"
	 viewBox="0 0 45 45" style="enable-background:new 0 0 45 45;" xml:space="preserve">
<style type="text/css">
	.st0{fill:#181818;}
</style>
<title>Resurs 84</title>
<g id="Lager_2_1_">
	<g id="Lager_1-2">
		<path class="st0" d="M22.5,0C10.1,0,0,10.1,0,22.5S10.1,45,22.5,45S45,34.9,45,22.5S34.9,0,22.5,0z M16.6,28.6
			c-1.1,0-2.2-0.3-3.2-0.8v-1.9c0.9,0.6,2,0.9,3.1,0.9c1.7,0,2.5-1,2.5-2.1s-0.7-1.9-2.2-1.9c-0.6,0-1.2,0.1-1.7,0.4l-1.5-0.5l0.7-6
			h5.9v1.7H16l-0.3,2.9c0.5-0.2,1-0.2,1.5-0.2c1.9-0.2,3.6,1.2,3.7,3.1c0,0.1,0,0.3,0,0.4C20.9,27,19.2,28.6,16.6,28.6z M31.9,27.2
			c-1.1,1-2.5,1.5-4,1.4c-3.6,0-5.4-2.5-5.4-5.6v-0.8c0-3.1,1.9-5.6,5.5-5.6c1.2,0,2.3,0.3,3.3,0.9v1.9c-1-0.6-2.1-0.9-3.3-0.9
			c-2.5,0-3.6,1.6-3.6,3.8v0.7c0,2.2,1.1,3.8,3.5,3.8c0.8,0,1.5-0.1,2.2-0.5v-2.5h-2.5v-1.8h4.4V27.2z"/>
	</g>
</g>
</svg>
