<?xml version="1.0" encoding="utf-8"?>
<!-- Generator: Adobe Illustrator 22.0.1, SVG Export Plug-In . SVG Version: 6.00 Build 0)  -->
<svg version="1.1" id="Lager_1" xmlns="http://www.w3.org/2000/svg" xmlns:xlink="http://www.w3.org/1999/xlink" x="0px" y="0px"
	 viewBox="0 0 70.7 68.6" style="enable-background:new 0 0 70.7 68.6;" xml:space="preserve">
<style type="text/css">
	.st0{fill:#181818;}
</style>
<title>Resurs 40</title>
<path class="st0" d="M60.3,23.8C60.3,23.8,60.3,23.8,60.3,23.8c-4.9,0-8.9,3.3-10.1,7.8h-7.4L54,18.9c1.7,1.3,3.9,2.1,6.2,2.1
	c5.8,0,10.5-4.7,10.5-10.5C70.7,4.7,66.1,0,60.3,0S49.8,4.7,49.8,10.5c0,2,0.6,3.9,1.5,5.4L37.4,31.7h-2.3l0,0h-1.8
	c-0.9-4.8-5.2-8.5-10.3-8.5c-5.1,0-9.4,3.7-10.3,8.5H0v4h12.9c0.9,4.8,5.2,8.4,10.3,8.4c5.1,0,9.3-3.6,10.3-8.4h4.4l12.5,19.2
	c-0.3,1-0.5,2.1-0.5,3.2c0,5.8,4.7,10.5,10.5,10.5c5.8,0,10.5-4.7,10.5-10.5c0-5.8-4.7-10.5-10.5-10.5c-3,0-5.8,1.3-7.7,3.4
	L42.5,35.7h7.4c0.7,5.1,5,9.1,10.4,9.1c5.8,0,10.5-4.7,10.5-10.5c0,0,0,0,0,0C70.7,28.5,66.1,23.8,60.3,23.8z M60.3,4
	c3.6,0,6.5,2.9,6.5,6.5c0,3.6-2.9,6.5-6.5,6.5c-3.6,0-6.5-2.9-6.5-6.5C53.8,6.9,56.7,4,60.3,4z M23.1,40.1c-3.6,0-6.5-2.9-6.5-6.5
	c0-3.6,2.9-6.5,6.5-6.5s6.5,2.9,6.5,6.5C29.6,37.2,26.7,40.1,23.1,40.1z M60.3,51.7c3.6,0,6.5,2.9,6.5,6.5c0,3.6-2.9,6.5-6.5,6.5
	c-3.6,0-6.5-2.9-6.5-6.5C53.8,54.6,56.7,51.7,60.3,51.7z M60.3,40.8c-3.6,0-6.5-2.9-6.5-6.5c0,0,0,0,0,0c0-3.6,2.9-6.5,6.5-6.5
	c3.6,0,6.5,2.9,6.5,6.5S63.8,40.8,60.3,40.8z"/>
</svg>
