<?xml version="1.0" encoding="utf-8"?>
<!-- Generator: Adobe Illustrator 22.0.1, SVG Export Plug-In . SVG Version: 6.00 Build 0)  -->
<svg version="1.1" id="Lager_1" xmlns="http://www.w3.org/2000/svg" xmlns:xlink="http://www.w3.org/1999/xlink" x="0px" y="0px"
	 viewBox="0 0 61.2 60.2" style="enable-background:new 0 0 61.2 60.2;" xml:space="preserve">
<style type="text/css">
	.st0{fill:#181818;}
</style>
<title>Resurs 54</title>
<g>
	<path class="st0" d="M14.8,47.6h30.6c1.1,0,2-0.9,2-2V15.4c0-1.1-0.9-2-2-2H14.8c-1.1,0-2,0.9-2,2v30.2
		C12.8,46.7,13.7,47.6,14.8,47.6z M16.8,17.4h26.6v26.2H16.8V17.4z"/>
	<path class="st0" d="M61.2,16.4v-4h-6.1V5.6h-7.6V0h-4v5.6H31.5V0h-4v5.6H15.4V0h-4v5.6H4.9v6.8H0v4h4.9v12.1H0v4h4.9v12.1H0v4h4.9
		v6.7h6.5v4.9h4v-4.9h12.1v4.9h4v-4.9h12.1v4.9h4v-4.9h7.6v-6.7h6.1v-4h-6.1V32.5h6.1v-4h-6.1V16.4H61.2z M51.2,51.4H8.9V9.6h42.3
		V51.4z"/>
	<path class="st0" d="M24.8,25.4l-4,11.5h2l1-2.9h4.7l0.9,2.9h2l-4-11.5H24.8z M24.5,32.1l1.8-5.1l1.7,5.2L24.5,32.1z"/>
	<polygon class="st0" points="32.7,26.9 34.2,26.9 34.2,35.3 32.7,35.3 32.7,36.9 37.7,36.9 37.7,35.3 36.1,35.3 36.1,26.9 
		37.7,26.9 37.7,25.3 32.7,25.3 	"/>
</g>
</svg>
