<?xml version="1.0" encoding="utf-8"?>
<!-- Generator: Adobe Illustrator 22.0.1, SVG Export Plug-In . SVG Version: 6.00 Build 0)  -->
<svg version="1.1" id="Lager_1" xmlns="http://www.w3.org/2000/svg" xmlns:xlink="http://www.w3.org/1999/xlink" x="0px" y="0px"
	 viewBox="0 0 56.6 56.5" style="enable-background:new 0 0 56.6 56.5;" xml:space="preserve">
<style type="text/css">
	.st0{fill:#181818;}
</style>
<title>Resurs 55</title>
<path class="st0" d="M51.2,16.4V6.7h-7.6V0.2H25.7v0.1C25.1,0.1,24.4,0,23.8,0c-4.6,0-8.6,2.8-10.4,6.7c-2.3-0.6-4.7-0.2-6.8,1.1
	c-3.5,2.3-4.7,6.9-3,10.6C1.3,20.8,0,24,0,27.9c0,4.3,2.1,8.2,5.3,10.6c-1,1.7-1.4,3.7-1,5.6c0.8,4.6,5.1,7.7,9.7,7
	c2.1,3.4,5.9,5.5,9.9,5.3h1.7v0.1h17v-6.2h7v-9.1h7V16.4H51.2z M23.9,52.4c-3,0.2-5.8-1.6-7-4.4l-0.7-2l-2,0.8
	c-1.7,0.7-3.6,0.3-4.9-1c-1.5-1.5-1.7-3.8-0.6-5.5c1.5,0.5,3,0.9,4.7,0.9v-4C8.2,37.2,4,33,4,27.8c0-2.7,0.5-6,4.6-8.3l-1.1-2.3
	c-0.8-1.6-1-3.4,0-4.9c1.1-1.6,3-2.3,4.8-1.8c0,0.3-0.1,0.7-0.1,1c0,1.7,0.4,3.3,1.1,4.9c-0.9,0.6-1.7,1.4-2.4,2.3l3.2,2.4
	c1.3-1.7,3.4-2.6,5.5-2.3l0.5-4c-1-0.1-2-0.1-3,0.1c-0.5-1-0.8-2.2-0.8-3.3c0-4.2,3.4-7.6,7.6-7.6H24c0.5,0,1,0.1,1.4,0.4
	c0.1,0.1,0.2,0.2,0.2,0.7v22.5c-4.9,0.7-8.6,4.8-8.6,9.9h4c0-2.8,2-5.2,4.6-5.8v12.8v8L23.9,52.4L23.9,52.4z M52.6,37.2h-7v9.1h-7
	v6.2h-9v-9.9h5.9v-4h-5.9v-2.2v-5.5h10.6c0.9,1.7,2.6,2.9,4.7,2.9c2.9,0,5.3-2.4,5.3-5.3s-2.4-5.3-5.3-5.3c-2.4,0-4.4,1.6-5,3.7
	H29.6v-9.2h6.8v3.5h4v-7.5H29.6V4.1h10v6.5h7.6v9.8h5.3v16.8H52.6z M43.6,28.5c0-0.7,0.6-1.3,1.3-1.3s1.3,0.6,1.3,1.3
	s-0.6,1.3-1.3,1.3C44.2,29.8,43.6,29.2,43.6,28.5z"/>
</svg>
