<svg xmlns="http://www.w3.org/2000/svg" viewBox="0 0 36.44 61"><defs><style>.cls-1{fill:#181818;}</style></defs><title>Resurs 149</title><g id="Lager_2" data-name="Lager 2"><g id="Lager_1-2" data-name="Lager 1"><path class="cls-1" d="M18.09,48.68a2.09,2.09,0,1,0,2.09,2.09A2.1,2.1,0,0,0,18.09,48.68Z"/><path class="cls-1" d="M30.44,0H6A6,6,0,0,0,0,6V55a6,6,0,0,0,6,6H30.44a6,6,0,0,0,6-6V6A6,6,0,0,0,30.44,0Zm2,55a2,2,0,0,1-2,2H6a2,2,0,0,1-2-2V6A2,2,0,0,1,6,4H30.44a2,2,0,0,1,2,2Z"/><polygon class="cls-1" points="15.82 30.31 13.09 27.58 10.26 30.41 15.82 35.97 26.59 25.19 23.77 22.36 15.82 30.31"/></g></g></svg>