<?xml version="1.0" encoding="utf-8"?>
<!-- Generator: Adobe Illustrator 22.0.1, SVG Export Plug-In . SVG Version: 6.00 Build 0)  -->
<svg version="1.1" id="Lager_1" xmlns="http://www.w3.org/2000/svg" xmlns:xlink="http://www.w3.org/1999/xlink" x="0px" y="0px"
	 viewBox="0 0 64 45.5" style="enable-background:new 0 0 64 45.5;" xml:space="preserve">
<style type="text/css">
	.st0{fill:#181818;}
</style>
<title>Resurs 47</title>
<g>
	<path class="st0" d="M62,0H2C1.5,0,1,0.2,0.6,0.6C0.2,1,0,1.5,0,2v41.5c0,1.1,0.9,2,2,2h60c1.1,0,2-0.9,2-2V2C64,0.9,63.1,0,62,0z
		 M60,41.5h-5.1H4V4h56V41.5z"/>
	<path class="st0" d="M32.7,36.1c0.4,0,0.8,0,1.3-0.1c6.3-0.9,10.8-6.5,10.5-12.8c-0.3-5.9-4.8-10.6-10.4-11.4l1.6-1.7l-2.9-2.7
		L26.6,14l6.7,6.6l2.8-2.9L34,15.7c3.6,0.6,6.6,3.5,7,7.3c0.5,4.5-2.9,8.6-7.4,9c-1.4,0.1-2.7-0.1-4-0.6c-4.2-1.8-6.2-6.6-4.4-10.8
		l-3.7-1.6c-0.8,1.9-1.1,4-0.9,6C21.2,31.3,26.4,36.1,32.7,36.1z"/>
	<path class="st0" d="M10.5,12c1,0,1.8-0.8,1.8-1.9c0-1-0.8-1.9-1.9-1.9c0,0,0,0,0,0c-1,0-1.9,0.8-1.8,1.9
		C8.6,11.2,9.4,12.1,10.5,12z"/>
</g>
</svg>
