<svg xmlns="http://www.w3.org/2000/svg" viewBox="0 0 53.31 62.6"><title>Resurs 119</title><g id="Lager_2" data-name="Lager 2"><g id="Lager_1-2" data-name="Lager 1"><path d="M0,62.6H53.31V49H0ZM3.13,52.08h47v7.38h-47Z"/><circle cx="46.32" cy="55.72" r="1.48"/><path d="M41.11,54.24a1.48,1.48,0,1,0,1.48,1.48A1.47,1.47,0,0,0,41.11,54.24Z"/><circle cx="35.91" cy="55.72" r="1.48"/><rect x="10.43" y="54.46" width="5.62" height="2.74"/><rect x="5.11" y="54.46" width="2.92" height="2.74"/><path d="M0,46.28H53.31V32.63H0ZM3.13,35.76h47v7.39h-47Z"/><path d="M46.32,37.92A1.48,1.48,0,1,0,47.8,39.4,1.48,1.48,0,0,0,46.32,37.92Z"/><path d="M41.11,37.92a1.48,1.48,0,1,0,1.48,1.48A1.47,1.47,0,0,0,41.11,37.92Z"/><path d="M35.91,37.92a1.48,1.48,0,1,0,1.48,1.48A1.48,1.48,0,0,0,35.91,37.92Z"/><rect x="10.43" y="38.14" width="5.62" height="2.74"/><rect x="5.11" y="38.14" width="2.92" height="2.74"/><path d="M0,30H53.31V16.32H0ZM3.13,19.45h47v7.38h-47Z"/><circle cx="46.32" cy="23.09" r="1.48"/><path d="M41.11,21.61a1.48,1.48,0,1,0,1.48,1.48A1.47,1.47,0,0,0,41.11,21.61Z"/><circle cx="35.91" cy="23.09" r="1.48"/><rect x="10.43" y="21.83" width="5.62" height="2.74"/><rect x="5.11" y="21.83" width="2.92" height="2.74"/><path d="M0,0V13.65H53.31V0ZM50.17,10.52h-47V3.13h47Z"/><circle cx="46.32" cy="6.77" r="1.48"/><path d="M41.11,8.25a1.48,1.48,0,1,0-1.47-1.48A1.48,1.48,0,0,0,41.11,8.25Z"/><circle cx="35.91" cy="6.77" r="1.48"/><rect x="10.43" y="5.51" width="5.62" height="2.74"/><rect x="5.11" y="5.51" width="2.92" height="2.74"/></g></g></svg>