<svg xmlns="http://www.w3.org/2000/svg" viewBox="0 0 64.85 16.14"><title>Resurs 120</title><g id="Lager_2" data-name="Lager 2"><g id="Lager_1-2" data-name="Lager 1"><path d="M0,0V16.14H64.85V0ZM61.62,12.92H3.23V3.23H61.62Z"/><path d="M8.27,10A1.82,1.82,0,1,0,6.46,8.14,1.82,1.82,0,0,0,8.27,10Z"/><path d="M14.67,10a1.82,1.82,0,1,0-1.82-1.82A1.82,1.82,0,0,0,14.67,10Z"/><path d="M21.06,10a1.82,1.82,0,1,0-1.82-1.82A1.82,1.82,0,0,0,21.06,10Z"/><rect x="35.93" y="6.32" width="16.43" height="3.36"/><rect x="55.3" y="6.32" width="3.59" height="3.36"/></g></g></svg>