<?xml version="1.0" encoding="utf-8"?>
<!-- Generator: Adobe Illustrator 22.0.1, SVG Export Plug-In . SVG Version: 6.00 Build 0)  -->
<svg version="1.1" id="Lager_1" xmlns="http://www.w3.org/2000/svg" xmlns:xlink="http://www.w3.org/1999/xlink" x="0px" y="0px"
	 viewBox="0 0 45 63" style="enable-background:new 0 0 45 63;" xml:space="preserve">
<style type="text/css">
	.st0{fill:#231F20;}
</style>
<title>Resurs 79</title>
<g>
	<path class="st0" d="M22.8,49.7c-1.2-0.2-2.4,0.7-2.5,1.9c-0.2,1.2,0.7,2.4,1.9,2.5s2.4-0.7,2.5-1.9C24.9,51,24,49.8,22.8,49.7z"/>
	<path class="st0" d="M40.5,0C40.5,0,40.5,0,40.5,0h-36C2,0,0,2,0,4.5v54C0,61,2,63,4.5,63c0,0,0,0,0,0h36c2.5,0,4.5-2,4.5-4.5v-54
		C45,2,43,0,40.5,0z M41,58.5c0,0.3-0.2,0.5-0.5,0.5h-36c-0.1,0-0.3,0-0.3-0.1C4.1,58.8,4,58.6,4,58.5v-54C4,4.2,4.2,4,4.5,4h36
		C40.8,4,41,4.2,41,4.5V58.5z"/>
	<path class="st0" d="M25.7,19.7H24v-1.6h4.1v-3H24V12h-3v3.1h-1.7c-2.1,0-3.8,1.7-3.8,3.8s1.7,3.8,3.8,3.8H21v1.6h-3.1h-1.6v3h1.6
		H21v3.1h3v-3.1h1.7c0.1,0,0.3,0,0.4,0c2.1-0.1,3.7-1.9,3.6-4C29.6,21.2,27.8,19.6,25.7,19.7z M19.2,19.7c-0.4,0-0.8-0.4-0.8-0.8
		s0.4-0.8,0.8-0.8H21v1.6H19.2z M25.7,24.3H24v-1.6h1.7c0.1,0,0.1,0,0.2,0c0.4,0,0.8,0.5,0.7,0.9S26.1,24.3,25.7,24.3z"/>
	<rect x="10.2" y="38.8" class="st0" width="5.9" height="4"/>
	<rect x="18.5" y="38.8" class="st0" width="10.3" height="4"/>
	<rect x="30.9" y="38.8" class="st0" width="3.6" height="4"/>
</g>
</svg>
