<?xml version="1.0" encoding="utf-8"?>
<!-- Generator: Adobe Illustrator 22.0.1, SVG Export Plug-In . SVG Version: 6.00 Build 0)  -->
<svg version="1.1" id="Lager_1" xmlns="http://www.w3.org/2000/svg" xmlns:xlink="http://www.w3.org/1999/xlink" x="0px" y="0px"
	 viewBox="0 0 89.1 69.3" style="enable-background:new 0 0 89.1 69.3;" xml:space="preserve">
<title>Resurs 46</title>
<g>
	<rect x="34.7" y="14.3" width="4" height="6.1"/>
	<rect x="41.8" y="9.9" width="4" height="10.4"/>
	<rect x="48.8" y="7.7" width="4" height="12.6"/>
	<path d="M73.8,41v-8H46.3v-4.8h15.7V0H26.2v28.3h16.2V33H16.7v8H0v28.3h35.9V41H20.7v-4h49.1v4H53.2v28.3h35.9V41H73.8z M30.2,4
		h27.9v20.3H30.2V4z M31.9,65.3H4V45h27.9V65.3z M85.1,65.3H57.2V45h27.9V65.3z"/>
	<path d="M15.4,62.9h5.4c0.6,0,1,0.4,1.2,0.9l3.9-0.8c-0.5-2.4-2.6-4.1-5.1-4.1h-5.4c-2.4,0-4.6,1.7-5.1,4.1l3.9,0.8
		C14.4,63.3,14.8,62.9,15.4,62.9z"/>
	<path d="M17.9,58.6h0.5c0,0,0,0,0,0c2.8,0,5-2.2,5-5v-2.3c0-2.8-2.2-5-5-5h-0.5c-2.8,0-5,2.2-5,5v2.3
		C12.9,56.3,15.1,58.6,17.9,58.6z M16.9,51.2c0-0.6,0.4-1,1-1h0.5c0.6,0,1,0.4,1,1v2.3c0,0.6-0.4,1-1,1h-0.5c-0.6,0-1-0.4-1-1V51.2z
		"/>
	<path d="M69,56.8h1.2v1.2h-2.4h-1.3v2.5h1.3h2.4v2.4h2.5v-2.4H74c1.6-0.1,2.8-1.3,2.9-2.9c0.1-1.7-1.2-3.2-2.9-3.3h-1.2v-1.1H76
		v-2.5h-3.2v-2.4h-2.5v2.4H69c-1.7,0-3.1,1.4-3.1,3.1C65.9,55.4,67.3,56.8,69,56.8z M74,56.8c0.3,0,0.5,0.2,0.5,0.5
		c0,0.3-0.2,0.6-0.5,0.7h-1.2v-1.2H74z M69,53.2h1.2v1.1H69c-0.3,0-0.6-0.3-0.6-0.6C68.4,53.4,68.7,53.2,69,53.2z"/>
</g>
</svg>
