<svg xmlns="http://www.w3.org/2000/svg" viewBox="0 0 63.9 63.9"><defs><style>.cls-1{fill:#181818;}</style></defs><title>Resurs 96</title><g id="Lager_2" data-name="Lager 2"><g id="Lager_1-2" data-name="Lager 1"><path class="cls-1" d="M53.33,10.57V0H0V53.33H10.57V63.9H63.9V10.57ZM4,4H49.33V49.33H4ZM59.9,59.9H14.57V53.33H53.33V14.57H59.9Z"/><path class="cls-1" d="M19.88,21.46a4.18,4.18,0,0,0-4.25-4.36l3.53-3.74v-2.1H10.58v2.18h5.86L12.18,18l1,1.48a3.71,3.71,0,0,1,1.57-.28c1.81,0,2.77,1,2.77,2.33s-1,2.6-3.07,2.6a7.74,7.74,0,0,1-4.15-1.16v2.37a8.19,8.19,0,0,0,4.17,1C17.77,26.34,19.88,24.31,19.88,21.46Z"/><polygon class="cls-1" points="31.34 24.12 27.9 24.12 27.9 11.24 26.8 11.24 22.14 12.81 22.14 14.98 25.57 13.97 25.57 24.12 21.97 24.12 21.97 26.07 31.34 26.07 31.34 24.12"/></g></g></svg>