<?xml version="1.0" encoding="utf-8"?>
<!-- Generator: Adobe Illustrator 22.0.1, SVG Export Plug-In . SVG Version: 6.00 Build 0)  -->
<svg version="1.1" id="Lager_1" xmlns="http://www.w3.org/2000/svg" xmlns:xlink="http://www.w3.org/1999/xlink" x="0px" y="0px"
	 viewBox="0 0 51.3 37.7" style="enable-background:new 0 0 51.3 37.7;" xml:space="preserve">
<style type="text/css">
	.st0{fill:#181818;}
</style>
<title>Resurs 30</title>
<path class="st0" d="M44.6,16.6c0-0.2,0-0.3,0-0.5c0-7.6-5.3-14.1-12.7-15.7C23.2-1.5,14.6,4,12.8,12.7h-0.2C5.6,12.7,0,18.3,0,25.2
	s5.6,12.5,12.5,12.5h27.8h0c4.4,0,8.4-2.6,10.2-6.7C52.8,25.4,50.2,18.9,44.6,16.6z M40.3,33.7H12.5c-4.7,0-8.5-3.8-8.5-8.5
	s3.8-8.5,8.5-8.5c0.5,0,1.1,0.1,1.6,0.2l2.2,0.4l0.2-2.2c0.6-6.2,5.7-11,12-11c6.7-0.1,12.1,5.3,12.2,12c0,0.5,0,1.1-0.1,1.6
	l-0.2,1.8l1.7,0.4c3.2,0.8,5.4,3.6,5.3,6.9C47.3,30.7,44.1,33.8,40.3,33.7z"/>
</svg>
