<?xml version="1.0" encoding="utf-8"?>
<!-- Generator: Adobe Illustrator 22.0.1, SVG Export Plug-In . SVG Version: 6.00 Build 0)  -->
<svg version="1.1" id="Lager_1" xmlns="http://www.w3.org/2000/svg" xmlns:xlink="http://www.w3.org/1999/xlink" x="0px" y="0px"
	 viewBox="0 0 38.3 68.6" style="enable-background:new 0 0 38.3 68.6;" xml:space="preserve">
<style type="text/css">
	.st0{fill:#181818;}
</style>
<title>Resurs 53</title>
<g>
	<path class="st0" d="M19.2,45.5c6.3,0,11.4-5.1,11.4-11.4V22.8l-0.1-11.3C30.5,5.1,25.4,0,19.1,0C12.8,0,7.7,5.1,7.7,11.4v11.4
		l0.1,11.3C7.8,40.4,12.9,45.5,19.2,45.5z M26.7,34.1c0,4.1-3.3,7.4-7.4,7.4s-7.4-3.3-7.4-7.4l-0.1-6.7l14.9-5l0,0.4V34.1z
		 M11.7,11.4C11.7,7.3,15,4,19.1,4c4.1,0,7.4,3.3,7.4,7.4l0.1,6.8l-14.9,5l0-0.4V11.4z"/>
	<path class="st0" d="M34.3,30.4v3.8c0,0.3,0,0.5,0,0.8c-0.2,8.4-7.2,15-15.5,14.7c-8.4-0.2-15-7.2-14.7-15.5v-3.8H0v3.8
		C0,44,7.4,52,16.8,53.2v11.4H7.1v4h23.5v-4h-9.7V53.2c9.8-0.9,17.4-9.1,17.4-19.1v-3.8H34.3z"/>
</g>
</svg>
