<svg xmlns="http://www.w3.org/2000/svg" viewBox="0 0 62.98 56.43"><defs><style>.cls-1{fill:#181818;}</style></defs><title>Resurs 89</title><g id="Lager_2" data-name="Lager 2"><g id="Lager_1-2" data-name="Lager 1"><path class="cls-1" d="M29.6,5.13a4.79,4.79,0,0,0-1.48-3.64A6.34,6.34,0,0,0,23.79,0,11.61,11.61,0,0,0,13.34,6.71,8.43,8.43,0,0,0,3.59,18.43,13.15,13.15,0,0,0,0,27.85,13.4,13.4,0,0,0,5.26,38.48a8.44,8.44,0,0,0,8.66,12.6,11.14,11.14,0,0,0,9.92,5.35h2.42A3.25,3.25,0,0,0,29,55.19a3.11,3.11,0,0,0,.56-2.39Zm-5.76,47.3a7.22,7.22,0,0,1-7-4.36l-.69-2-2,.79a4.43,4.43,0,0,1-5.45-6.44,13.4,13.4,0,0,0,4.67.86v-4A9.44,9.44,0,0,1,4,27.85c0-2.67.79-6.25,4.54-8.16L7.39,17.43l.14-.1a4.45,4.45,0,0,1,4.76-6.77c0,.34,0,.69,0,1a11.41,11.41,0,0,0,1.08,4.88,9.92,9.92,0,0,0-2.38,2.24l3.21,2.4a6,6,0,0,1,5.47-2.36l.46-4a9.71,9.71,0,0,0-3,.14,7.45,7.45,0,0,1-.79-3.33A7.63,7.63,0,0,1,23.94,4a2.35,2.35,0,0,1,1.44.4c.06.06.22.21.22.73V27.65A10,10,0,0,0,17,37.52h4A6,6,0,0,1,25.6,31.7V52.43Z"/><path class="cls-1" d="M63,28.59A13.39,13.39,0,0,0,57.72,18,8.45,8.45,0,0,0,49.05,5.35,11.11,11.11,0,0,0,39.14,0H36.72a3.32,3.32,0,0,0-2.79,1.24,3.13,3.13,0,0,0-.55,2.4V51.3a4.83,4.83,0,0,0,1.47,3.64A6.21,6.21,0,0,0,39,56.43h.18a11.61,11.61,0,0,0,10.46-6.71,8.58,8.58,0,0,0,2.07.27,8.44,8.44,0,0,0,7.68-12A13.16,13.16,0,0,0,63,28.59Zm-8.11,16.1a4.47,4.47,0,0,1-4.19,1.18c0-.34.06-.69.06-1A11.4,11.4,0,0,0,49.66,40,9.73,9.73,0,0,0,52,37.71l-3.2-2.39a6,6,0,0,1-5.47,2.35l-.46,4a10.88,10.88,0,0,0,1.14.06,9.46,9.46,0,0,0,1.91-.2,7.56,7.56,0,0,1-6.81,10.92H39A2.49,2.49,0,0,1,37.6,52c-.06-.06-.22-.21-.22-.74V35.79A10,10,0,0,0,46,25.91H42a6,6,0,0,1-4.63,5.82V4h1.76a7.22,7.22,0,0,1,7,4.37l.69,2,1.95-.79A4.44,4.44,0,0,1,54.22,16a13.43,13.43,0,0,0-4.67-.85v4A9.44,9.44,0,0,1,59,28.59c0,2.66-.79,6.24-4.55,8.16L55.58,39l-.14.09A4.45,4.45,0,0,1,54.87,44.69Z"/></g></g></svg>