<?xml version="1.0" encoding="utf-8"?>
<!-- Generator: Adobe Illustrator 22.0.1, SVG Export Plug-In . SVG Version: 6.00 Build 0)  -->
<svg version="1.1" id="Lager_1" xmlns="http://www.w3.org/2000/svg" xmlns:xlink="http://www.w3.org/1999/xlink" x="0px" y="0px"
	 viewBox="0 0 55.3 57" style="enable-background:new 0 0 55.3 57;" xml:space="preserve">
<style type="text/css">
	.st0{fill:#181818;}
</style>
<title>Resurs 29</title>
<path class="st0" d="M47.7,41.7c-1.3,0-2.5,0.3-3.5,0.9l-7-7c1.8-2.1,2.8-4.8,2.8-7.7c0-2.5-0.8-4.9-2.1-6.8l6.3-6.3
	c0.9,0.4,2,0.6,3,0.6c4.2,0,7.7-3.4,7.7-7.7c0-4.2-3.4-7.7-7.7-7.7c-4.2,0-7.7,3.4-7.7,7.7c0,1.7,0.6,3.3,1.5,4.6l-5.9,5.9
	c-2-1.5-4.4-2.3-7.1-2.3c-3,0-5.6,1.1-7.7,2.8l-6.4-6.4c0.9-1.3,1.5-2.8,1.5-4.6c0-4.2-3.4-7.7-7.7-7.7C3.4,0,0,3.4,0,7.7
	c0,4.2,3.4,7.7,7.7,7.7c1.1,0,2.1-0.2,3-0.6l7,7c-1.1,1.8-1.7,3.9-1.7,6.1c0,2.7,0.9,5.1,2.3,7.1L11,42.3c-0.9-0.4-1.9-0.6-3-0.6
	c-4.2,0-7.7,3.4-7.7,7.7C0.3,53.6,3.8,57,8,57c4.2,0,7.7-3.4,7.7-7.7c0-1.7-0.6-3.3-1.5-4.6l7.1-7.1c1.9,1.3,4.3,2.1,6.8,2.1
	c2.2,0,4.3-0.6,6.1-1.7l7.1,7.1c-0.8,1.2-1.2,2.6-1.2,4.1c0,4.2,3.4,7.7,7.7,7.7c4.2,0,7.7-3.4,7.7-7.7
	C55.4,45.1,51.9,41.7,47.7,41.7z M47.2,4c2,0,3.7,1.6,3.7,3.7s-1.6,3.7-3.7,3.7s-3.7-1.6-3.7-3.7S45.2,4,47.2,4z M4,7.7
	C4,5.6,5.6,4,7.7,4s3.7,1.6,3.7,3.7s-1.6,3.7-3.7,3.7S4,9.7,4,7.7z M8,53c-2,0-3.7-1.6-3.7-3.7S6,45.7,8,45.7s3.7,1.6,3.7,3.7
	S10,53,8,53z M20,27.8c0-4.4,3.6-8,8-8s8,3.6,8,8s-3.6,8-8,8S20,32.2,20,27.8z M47.7,53c-2,0-3.7-1.6-3.7-3.6c0,0,0,0,0,0
	c0-2,1.6-3.7,3.7-3.7c2,0,3.7,1.6,3.7,3.6C51.4,51.4,49.7,53,47.7,53z"/>
</svg>
