<svg xmlns="http://www.w3.org/2000/svg" viewBox="0 0 77.83 59"><defs><style>.cls-1{fill:#181818;}</style></defs><title>Resurs 104</title><g id="Lager_2" data-name="Lager 2"><g id="Lager_1-2" data-name="Lager 1"><path class="cls-1" d="M11,30.93a3.38,3.38,0,1,0,3.38-3.38A3.38,3.38,0,0,0,11,30.93Z"/><path class="cls-1" d="M40.47,43.76V41h3.14a5.68,5.68,0,0,0,0-11.36H40.47V26.33h6.91v-4H40.47V18.27h-4v4.06H33.32a5.66,5.66,0,0,0,0,11.32h3.15V37H28.54v4h7.93v2.75ZM33.32,29.65a1.66,1.66,0,0,1,0-3.32h3.15v3.32Zm7.15,4h3.14a1.68,1.68,0,0,1,0,3.36H40.47Z"/><polygon class="cls-1" points="0 49.59 57.21 49.59 57.21 45.59 4 45.59 4 15.76 57.21 15.76 57.21 11.76 0 11.76 0 49.59"/><polygon class="cls-1" points="68.4 11.76 68.4 15.76 73.83 15.76 73.83 45.59 68.4 45.59 68.4 49.59 77.83 49.59 77.83 11.76 68.4 11.76"/><rect class="cls-1" x="60.83" y="54" width="4" height="5"/><rect class="cls-1" x="60.83" y="27" width="4" height="5"/><rect class="cls-1" x="60.83" y="9" width="4" height="5"/><rect class="cls-1" x="60.83" y="45" width="4" height="5"/><rect class="cls-1" x="60.83" width="4" height="5"/><rect class="cls-1" x="60.83" y="18" width="4" height="5"/><rect class="cls-1" x="60.83" y="36" width="4" height="5"/></g></g></svg>