<svg xmlns="http://www.w3.org/2000/svg" viewBox="0 0 67.15 68.29"><defs><style>.cls-1{fill:#181818;}</style></defs><title>Resurs 100</title><g id="Lager_2" data-name="Lager 2"><g id="Lager_1-2" data-name="Lager 1"><path class="cls-1" d="M41.67,54.12H16.4A16.82,16.82,0,0,0,0,67.48l3.92.81A12.79,12.79,0,0,1,16.4,58.12H41.67A12.79,12.79,0,0,1,54.14,68.29l3.92-.81A16.81,16.81,0,0,0,41.67,54.12Z"/><path class="cls-1" d="M27.91,50.56h2.24a16,16,0,0,0,16-16V23.75a16,16,0,0,0-16-16H27.91a16,16,0,0,0-16,16V34.6A16,16,0,0,0,27.91,50.56ZM16,23.75a12,12,0,0,1,12-12h2.24a12,12,0,0,1,12,12V34.6a12,12,0,0,1-12,12H27.91a12,12,0,0,1-12-12Z"/><path class="cls-1" d="M57.26,0a9.9,9.9,0,1,0,9.89,9.9A9.9,9.9,0,0,0,57.26,0ZM55.45,15.8l-4.73-4.74,2.12-2.12,2.61,2.62,6.21-6.21,2.12,2.12Z"/><path class="cls-1" d="M29,42.83a7.76,7.76,0,0,0,7.75-7.75h-4a3.75,3.75,0,0,1-7.5,0h-4A7.75,7.75,0,0,0,29,42.83Z"/></g></g></svg>