<?xml version="1.0" encoding="utf-8"?>
<!-- Generator: Adobe Illustrator 22.0.1, SVG Export Plug-In . SVG Version: 6.00 Build 0)  -->
<svg version="1.1" id="Lager_1" xmlns="http://www.w3.org/2000/svg" xmlns:xlink="http://www.w3.org/1999/xlink" x="0px" y="0px"
	 viewBox="0 0 67 48" style="enable-background:new 0 0 67 48;" xml:space="preserve">
<style type="text/css">
	.st0{fill:#181818;}
</style>
<title>Resurs 43</title>
<g>
	<path class="st0" d="M47.2,26.6c4.9,0,8.9-4,8.9-8.9c0-4.9-4-8.9-8.9-8.9c-4.9,0-8.9,4-8.9,8.9C38.3,22.6,42.3,26.6,47.2,26.6z
		 M47.1,12.2v5.4h5.6c0,3-2.4,5.4-5.4,5.4c-3,0-5.4-2.4-5.4-5.4C41.8,14.7,44.2,12.3,47.1,12.2z"/>
	<path class="st0" d="M65,0H2C1.5,0,1,0.2,0.6,0.6C0.2,1,0,1.5,0,2v44c0,1.1,0.9,2,2,2h63c1.1,0,2-0.9,2-2V2C67,0.9,66.1,0,65,0z
		 M63,44H4V4h59V44z"/>
	<rect x="9.7" y="9.6" class="st0" width="20.7" height="4"/>
	<rect x="9.7" y="21.9" class="st0" width="20.7" height="4"/>
	<rect x="9.7" y="34.5" class="st0" width="11.7" height="4"/>
	<rect x="38.4" y="34.3" class="st0" width="4" height="4.9"/>
	<rect x="44.7" y="31.3" class="st0" width="4" height="7.9"/>
	<rect x="50.9" y="29.3" class="st0" width="4" height="9.9"/>
</g>
</svg>
