<?xml version="1.0" encoding="utf-8"?>
<!-- Generator: Adobe Illustrator 22.0.1, SVG Export Plug-In . SVG Version: 6.00 Build 0)  -->
<svg version="1.1" id="Lager_1" xmlns="http://www.w3.org/2000/svg" xmlns:xlink="http://www.w3.org/1999/xlink" x="0px" y="0px"
	 viewBox="0 0 53.3 53.7" style="enable-background:new 0 0 53.3 53.7;" xml:space="preserve">
<style type="text/css">
	.st0{fill:#181818;}
</style>
<title>Resurs 26</title>
<g>
	<path class="st0" d="M28.6,0v24.7h24.7C53.3,11.1,42.2,0,28.6,0z"/>
	<path class="st0" d="M46.4,28.5c0,11.7-9.5,21.2-21.2,21.2C13.5,49.7,4,40.2,4,28.5C4,16.8,13.5,7.3,25.2,7.3v-4c-0.3,0-0.7,0-1,0
		C10.3,3.6-0.8,15.1-0.5,29c0.3,13.9,11.8,25,25.7,24.7c13.9,0,25.2-11.3,25.2-25.2L46.4,28.5C46.4,28.5,46.4,28.5,46.4,28.5z"/>
</g>
</svg>
