<svg xmlns="http://www.w3.org/2000/svg" viewBox="0 0 63.03 53.75"><title>Resurs 64</title><g id="Lager_2" data-name="Lager 2"><g id="Lager_1-2" data-name="Lager 1"><circle cx="9.4" cy="10.81" r="2.25"/><rect x="29.31" y="44.04" width="4" height="9.06"/><rect x="0.03" y="49.75" width="63" height="4"/><path d="M4.5,0V4h54a.5.5,0,0,1,.5.5v36a.48.48,0,0,1-.14.35.49.49,0,0,1-.36.15H4.5a.5.5,0,0,1-.5-.5V4.5A.51.51,0,0,1,4.5,4V0m0,0A4.49,4.49,0,0,0,0,4.5v36A4.5,4.5,0,0,0,4.5,45h54A4.49,4.49,0,0,0,63,40.5V4.5A4.5,4.5,0,0,0,58.5,0Z"/><rect x="0.03" y="49.75" width="63" height="4"/><path d="M4.5,0V4h54a.5.5,0,0,1,.5.5v36a.48.48,0,0,1-.14.35.49.49,0,0,1-.36.15H4.5a.5.5,0,0,1-.5-.5V4.5A.51.51,0,0,1,4.5,4V0m0,0A4.49,4.49,0,0,0,0,4.5v36A4.5,4.5,0,0,0,4.5,45h54A4.49,4.49,0,0,0,63,40.5V4.5A4.5,4.5,0,0,0,58.5,0Z"/></g></g></svg>