<?xml version="1.0" encoding="utf-8"?>
<!-- Generator: Adobe Illustrator 22.0.1, SVG Export Plug-In . SVG Version: 6.00 Build 0)  -->
<svg version="1.1" id="Lager_1" xmlns="http://www.w3.org/2000/svg" xmlns:xlink="http://www.w3.org/1999/xlink" x="0px" y="0px"
	 viewBox="0 0 66 64.5" style="enable-background:new 0 0 66 64.5;" xml:space="preserve">
<style type="text/css">
	.st0{fill:#181818;}
</style>
<title>Resurs 82</title>
<g>
	<polygon class="st0" points="4,14.7 12.9,4 45.8,4 45.8,7.9 49.8,7.9 49.8,0 11.1,0 0,13.3 0,64.5 32.3,64.5 32.3,60.5 4,60.5 	"/>
	<rect x="13.6" y="18.2" class="st0" width="24" height="4"/>
	<rect x="13.6" y="30.2" class="st0" width="16.2" height="4"/>
	<rect x="13.6" y="42.3" class="st0" width="7.9" height="4"/>
	<rect x="49.8" y="22.1" class="st0" width="4" height="4"/>
	<rect x="45.8" y="18" class="st0" width="4" height="4"/>
	<rect x="62" y="18" class="st0" width="4" height="4"/>
	<rect x="27.4" y="42.3" class="st0" width="15.3" height="4"/>
	<rect x="58" y="30.1" class="st0" width="4" height="4"/>
	<polygon class="st0" points="37.6,34.2 41.8,34.2 41.8,30.2 37.6,30.2 35.6,30.2 33.6,30.2 33.6,34.2 35.6,34.2 	"/>
	<rect x="49.9" y="60.4" class="st0" width="4" height="4"/>
	<rect x="49.9" y="36.2" class="st0" width="4" height="4"/>
	<rect x="37.8" y="60.4" class="st0" width="4" height="4"/>
</g>
</svg>
