<?xml version="1.0" encoding="utf-8"?>
<!-- Generator: Adobe Illustrator 22.0.1, SVG Export Plug-In . SVG Version: 6.00 Build 0)  -->
<svg version="1.1" id="Lager_1" xmlns="http://www.w3.org/2000/svg" xmlns:xlink="http://www.w3.org/1999/xlink" x="0px" y="0px"
	 viewBox="0 0 67.5 60.8" style="enable-background:new 0 0 67.5 60.8;" xml:space="preserve">
<style type="text/css">
	.st0{fill:#181818;}
</style>
<title>Resurs 45</title>
<g>
	<polygon class="st0" points="4,31.9 4,4 46.4,4 46.4,11.9 50.4,11.9 50.4,0 0,0 0,41.6 15,26.6 12.2,23.8 	"/>
	<path class="st0" d="M17.7,14.4v33.1h36.5l13.3,13.3V14.4H17.7z M63.5,51.1L57,44.7l-1.2-1.2H21.7V18.4h41.7V51.1z"/>
	<rect x="34" y="29.8" transform="matrix(0.2305 -0.9731 0.9731 0.2305 2.0751 65.2703)" class="st0" width="16.6" height="3"/>
	<polygon class="st0" points="38.1,35.6 35,31.1 38.2,25.9 35.6,24.3 31.4,31.3 35.7,37.4 	"/>
	<polygon class="st0" points="49,37.3 53.2,30.4 48.9,24.3 46.5,26 49.6,30.5 46.4,35.7 	"/>
</g>
</svg>
