<?xml version="1.0" encoding="utf-8"?>
<!-- Generator: Adobe Illustrator 22.0.1, SVG Export Plug-In . SVG Version: 6.00 Build 0)  -->
<svg version="1.1" id="Lager_1" xmlns="http://www.w3.org/2000/svg" xmlns:xlink="http://www.w3.org/1999/xlink" x="0px" y="0px"
	 viewBox="0 0 56.5 48" style="enable-background:new 0 0 56.5 48;" xml:space="preserve">
<style type="text/css">
	.st0{fill:#181818;}
</style>
<title>Resurs 51</title>
<g id="Lager_2_1_">
	<g id="Lager_1-2">
		<path class="st0" d="M17.9,44c1.1,0,2,0.9,2,2s-0.9,2-2,2s-2-0.9-2-2S16.8,44,17.9,44"/>
		<path class="st0" d="M17.9,37.2c1.1,0,2,0.9,2,2s-0.9,2-2,2s-2-0.9-2-2S16.8,37.2,17.9,37.2"/>
		<path class="st0" d="M17.9,30.4c1.1,0,2,0.9,2,2c0,1.1-0.9,2-2,2s-2-0.9-2-2C15.9,31.3,16.8,30.4,17.9,30.4"/>
		<path class="st0" d="M17.9,44c1.1,0,2,0.9,2,2s-0.9,2-2,2s-2-0.9-2-2S16.8,44,17.9,44"/>
		<path class="st0" d="M17.9,37.2c1.1,0,2,0.9,2,2s-0.9,2-2,2s-2-0.9-2-2S16.8,37.2,17.9,37.2"/>
		<path class="st0" d="M17.9,30.4c1.1,0,2,0.9,2,2c0,1.1-0.9,2-2,2s-2-0.9-2-2C15.9,31.3,16.8,30.4,17.9,30.4"/>
		<path class="st0" d="M42.9,14.4c0,1.1-0.9,2-2,2s-2-0.9-2-2s0.9-2,2-2S42.9,13.3,42.9,14.4"/>
		<path class="st0" d="M49.7,14.4c0,1.1-0.9,2-2,2s-2-0.9-2-2s0.9-2,2-2S49.7,13.3,49.7,14.4"/>
		<path class="st0" d="M56.5,14.4c0,1.1-0.9,2-2,2s-2-0.9-2-2s0.9-2,2-2S56.5,13.3,56.5,14.4"/>
		<path class="st0" d="M27.5,26.5H9c-5,0.1-9.1-3.8-9.2-8.8s3.8-9.1,8.8-9.2c1.6-6.1,7.9-9.7,13.9-8.1c5,1.3,8.4,5.8,8.5,10.9
			c4,1.9,5.6,6.7,3.7,10.7C33.4,24.7,30.6,26.5,27.5,26.5L27.5,26.5z M9,12.5c-2.8,0-5,2.2-5,5s2.2,5,5,5h18.5c2.2,0,4-1.8,4-4
			c0-1.8-1.2-3.5-3-3.9l-1.7-0.4l0.2-1.8c0.1-0.3,0.1-0.7,0.1-1c0-4.1-3.3-7.4-7.4-7.4c-3.8,0-7,2.9-7.3,6.7L12.1,13l-2.2-0.4
			C9.6,12.5,9.3,12.5,9,12.5z"/>
	</g>
</g>
</svg>
