<svg xmlns="http://www.w3.org/2000/svg" viewBox="0 0 48 74.38"><defs><style>.cls-1{fill:#181818;}</style></defs><title>Resurs 90</title><g id="Lager_2" data-name="Lager 2"><g id="Lager_1-2" data-name="Lager 1"><polygon class="cls-1" points="36.94 0 0 0 0 58.01 4 58.01 4 4 35.06 4 44 14.72 44 48.01 48 48.01 48 13.28 36.94 0"/><rect class="cls-1" x="12" y="16.01" width="24" height="4"/><rect class="cls-1" x="12" y="28.01" width="24" height="4"/><rect class="cls-1" x="12" y="40.38" width="16" height="4"/><rect class="cls-1" x="31.75" y="40.38" width="4" height="4"/><rect class="cls-1" x="12" y="51.38" width="7" height="4"/><rect class="cls-1" x="32.13" y="51.38" width="4" height="4"/><rect class="cls-1" x="44" y="50.51" width="4" height="4"/><rect class="cls-1" x="24.13" y="51.38" width="4" height="4"/><rect class="cls-1" x="24.25" y="57.38" width="4" height="4"/><rect class="cls-1" x="24.25" y="70.38" width="4" height="4"/><rect class="cls-1" x="16.25" y="62.26" width="4" height="4"/><rect class="cls-1" x="40.38" y="62.26" width="4" height="4"/><rect class="cls-1" x="4.13" y="62.26" width="4" height="4"/></g></g></svg>