<svg xmlns="http://www.w3.org/2000/svg" viewBox="0 0 53.35 61"><title>Resurs 111</title><g id="Lager_2" data-name="Lager 2"><g id="Lager_1-2" data-name="Lager 1"><path d="M16.06,51.67a2.09,2.09,0,1,0,2.09-2.09A2.1,2.1,0,0,0,16.06,51.67Z"/><path d="M32.44,55a2,2,0,0,1-2,2H6a2,2,0,0,1-2-2V6A2,2,0,0,1,6,4H30.44a2,2,0,0,1,2,2V16.89h4V6a6,6,0,0,0-6-6H6A6,6,0,0,0,0,6V55a6,6,0,0,0,6,6H30.44a6,6,0,0,0,6-6V45h-4Z"/><rect x="26.1" y="32.52" width="3.18" height="3.18"/><path d="M51.35,20.52H22.15a2,2,0,0,0-2,2V39.58a2,2,0,0,0,2,2h29.2a2,2,0,0,0,2-2V22.52A2,2,0,0,0,51.35,20.52Zm-2,4V27H24.15v-2.5ZM24.15,37.58v-7h25.2v7Z"/></g></g></svg>