<svg xmlns="http://www.w3.org/2000/svg" viewBox="0 0 62.63 56.64"><defs><style>.cls-1{fill:#181818;}</style></defs><title>Resurs 124</title><g id="Lager_2" data-name="Lager 2"><g id="Lager_1-2" data-name="Lager 1"><path class="cls-1" d="M62.63,17.71h-7.8V.33H26.29V.41A7.1,7.1,0,0,0,23.8,0,11.52,11.52,0,0,0,13.36,6.79,8.32,8.32,0,0,0,3.65,18.42,13.05,13.05,0,0,0,0,27.88,13.31,13.31,0,0,0,5.35,38.54a8.33,8.33,0,0,0,8.59,12.55,11,11,0,0,0,9.9,5.41h2.7v.15H54.83V39.51h7.8ZM23.84,52.84a7.44,7.44,0,0,1-7.21-4.52L16,46.49l-1.79.72a4.66,4.66,0,0,1-5.65-6.89,13.16,13.16,0,0,0,4.79.91V37.56a9.7,9.7,0,0,1-9.69-9.68C3.66,24,5.33,21,8.34,19.49l-1.53-3a4.65,4.65,0,0,1,5.58-6.15c0,.39-.06.78-.06,1.18a11.47,11.47,0,0,0,1.14,5A9.54,9.54,0,0,0,11,18.8L13.93,21a6.19,6.19,0,0,1,5.68-2.45L20,14.9a9.83,9.83,0,0,0-3.16.17A7.77,7.77,0,0,1,16,11.51a7.87,7.87,0,0,1,7.93-7.84,2.49,2.49,0,0,1,1.59.45c.08.07.28.27.28.87V24.81a9.88,9.88,0,0,0-8.71,9.8h3.67a6.21,6.21,0,0,1,5-6.1V52.84ZM51.16,53H29.46V42.66H45.18V39H29.46V5a6.19,6.19,0,0,0-.09-1H51.16ZM59,35.85H54.83V21.37H59Z"/><path class="cls-1" d="M45.75,13.17H34.87V24.06H45.75ZM42.09,20.4H38.53V16.84h3.56Z"/></g></g></svg>