<svg xmlns="http://www.w3.org/2000/svg" viewBox="0 0 70.83 61"><defs><style>.cls-1{fill:#181818;}</style></defs><title>Resurs 110</title><g id="Lager_2" data-name="Lager 2"><g id="Lager_1-2" data-name="Lager 1"><circle class="cls-1" cx="35.81" cy="51.67" r="2.09"/><path class="cls-1" d="M48.1,61H23.66a6,6,0,0,1-6-6V6a6,6,0,0,1,6-6H48.1a6,6,0,0,1,6,6V55A6,6,0,0,1,48.1,61ZM23.66,4a2,2,0,0,0-2,2V55a2,2,0,0,0,2,2H48.1a2,2,0,0,0,2-2V6a2,2,0,0,0-2-2Z"/><rect class="cls-1" x="33.91" y="13.14" width="4" height="28.94"/><polygon class="cls-1" points="67.31 35.29 60.39 35.29 60.39 20.25 67.46 20.25 67.46 24.25 64.39 24.25 64.39 31.29 67.31 31.29 67.31 35.29"/><polygon class="cls-1" points="10.24 35.73 3.32 35.73 3.32 31.73 6.24 31.73 6.24 24.69 3.17 24.69 3.17 20.69 10.24 20.69 10.24 35.73"/><circle class="cls-1" cx="35.97" cy="27.39" r="5.53"/><rect class="cls-1" x="17.71" y="9.38" width="4.01" height="4"/><rect class="cls-1" x="17.71" y="41.59" width="4.01" height="4"/><polygon class="cls-1" points="13.5 41.59 4 41.59 4 13.38 13.5 13.38 13.5 9.38 0 9.38 0 45.59 13.5 45.59 13.5 41.59"/><rect class="cls-1" x="25.94" y="9.38" width="19.95" height="4"/><rect class="cls-1" x="25.94" y="41.59" width="19.95" height="4"/><polygon class="cls-1" points="70.83 9.38 58.33 9.38 58.33 13.38 66.83 13.38 66.83 41.59 58.33 41.59 58.33 45.59 70.83 45.59 70.83 9.38"/><rect class="cls-1" x="50.1" y="9.38" width="4.01" height="4"/><rect class="cls-1" x="50.1" y="41.59" width="4.01" height="4"/></g></g></svg>