<svg xmlns="http://www.w3.org/2000/svg" viewBox="0 0 71.33 40.67"><defs><style>.cls-1{fill:#181818;}</style></defs><title>Resurs 112</title><g id="Lager_2" data-name="Lager 2"><g id="Lager_1-2" data-name="Lager 1"><path class="cls-1" d="M65.33,36.67V28.73h-4v7.94H10V4H61.33v6.28h4V2a2,2,0,0,0-2-2H8A2,2,0,0,0,6,2V36.67H0v4H71.33v-4Z"/><path class="cls-1" d="M12.79,8.57a2,2,0,1,0,2-2A2,2,0,0,0,12.79,8.57Z"/><polygon class="cls-1" points="63.69 26.5 69.48 20.15 64.31 13.24 61.11 15.64 62.72 17.79 56.44 17.79 56.44 21.79 62.58 21.79 60.73 23.81 63.69 26.5"/></g></g></svg>