<svg xmlns="http://www.w3.org/2000/svg" viewBox="0 0 81 79"><defs><style>.cls-1{fill:#181818;}</style></defs><title>Resurs 91</title><g id="Lager_2" data-name="Lager 2"><g id="Lager_1-2" data-name="Lager 1"><polygon class="cls-1" points="4 45.17 4 4 56 4 56 20 60 20 60 0 0 0 0 54.83 17.41 37.41 14.59 34.59 4 45.17"/><rect class="cls-1" x="12" y="12" width="36" height="4"/><rect class="cls-1" x="12" y="24" width="4" height="4"/><path class="cls-1" d="M21,23V63H65L81,79V23ZM77,63.44v5.9l-9.17-9.17L66.66,59H25V27H77Z"/><polygon class="cls-1" points="69 39 69 35 61 35 33 35 33 39 61 39 69 39"/><rect class="cls-1" x="33" y="47" width="20" height="4"/></g></g></svg>