<svg xmlns="http://www.w3.org/2000/svg" viewBox="0 0 70 70"><defs><style>.cls-1{fill:#181818;}</style></defs><title>Resurs 93</title><g id="Lager_2" data-name="Lager 2"><g id="Lager_1-2" data-name="Lager 1"><path class="cls-1" d="M46.66,45.49H35a2,2,0,0,0-2,2v5h0v5a2,2,0,0,0,2,2h8.32a2,2,0,0,0,1.9-1.36l3.33-10a2,2,0,0,0-.28-1.81A2,2,0,0,0,46.66,45.49Zm-4.77,10H37v-6h6.88Z"/><path class="cls-1" d="M35,0A35,35,0,1,0,70,35,35,35,0,0,0,35,0ZM65.93,33,60.84,33l-6-6,3.94-11.84A30.86,30.86,0,0,1,65.93,33ZM28,4.81V8.18a2,2,0,0,0,1.37,1.9l10.4,3.46-4.38,9.31H25a2,2,0,0,0-2,2v5.22l-6,2V23.18a2,2,0,0,0-1.36-1.9L8.53,18.89A31.06,31.06,0,0,1,28,4.81ZM35,66A31,31,0,0,1,6.65,22.48L13,24.62V34.85a2,2,0,0,0,.83,1.62,2,2,0,0,0,1.17.38,1.93,1.93,0,0,0,.63-.1l10-3.34A2,2,0,0,0,27,31.51V26.85h9.66a2,2,0,0,0,1.81-1.15l5.87-12.49a2,2,0,0,0-1.17-2.75L32,6.74V4.15A29.83,29.83,0,0,1,35,4a30.86,30.86,0,0,1,20.61,7.87h0l-5,15a2,2,0,0,0,.48,2.05l7.5,7.5A2,2,0,0,0,60,37l6,.06A31,31,0,0,1,35,66Z"/></g></g></svg>