<?xml version="1.0" encoding="utf-8"?>
<!-- Generator: Adobe Illustrator 22.0.1, SVG Export Plug-In . SVG Version: 6.00 Build 0)  -->
<svg version="1.1" id="Lager_1" xmlns="http://www.w3.org/2000/svg" xmlns:xlink="http://www.w3.org/1999/xlink" x="0px" y="0px"
	 viewBox="0 0 64 65.1" style="enable-background:new 0 0 64 65.1;" xml:space="preserve">
<style type="text/css">
	.st0{fill:#181818;}
</style>
<title>Resurs 25</title>
<path class="st0" d="M59.3,24.5h-3.5v-0.7c0-0.3,0-0.7,0-1C55.5,9.7,44.7-0.8,31.5-0.5C18.4-0.2,7.9,10.7,8.2,23.8v0.7H4.7
	c-2.6,0-4.7,2.1-4.7,4.7v10.9c0,2.6,2.1,4.7,4.7,4.7h7.5V23.8c0-0.3,0-0.6,0-0.9C12.4,12,21.5,3.3,32.5,3.6
	c10.9,0.2,19.6,9.3,19.4,20.2v10.9c0,8.5-5.4,16-13.3,18.7c-1.3-2.6-4-4.3-7.1-4.3c-4.4,0-8,3.6-8,8s3.6,8,8,8c4.3,0,7.9-3.4,8-7.8
	c6.3-2.1,11.4-6.6,14.1-12.5h5.8c2.6,0,4.7-2.1,4.7-4.7V29.3C64,26.7,61.9,24.5,59.3,24.5z M8.2,40.9H4.7c-0.4,0-0.7-0.3-0.7-0.7
	V29.3c0-0.4,0.3-0.7,0.7-0.7h3.5V40.9z M31.4,61.1c-2.2,0-4-1.8-4-4c0-2.2,1.8-4,4-4c2.2,0,4,1.8,4,4S33.6,61.1,31.4,61.1z M60,40.2
	c0,0.4-0.3,0.7-0.7,0.7H55c0.5-2,0.8-4.1,0.8-6.2v-6.2h3.5c0.4,0,0.7,0.3,0.7,0.7V40.2z"/>
</svg>
