<svg xmlns="http://www.w3.org/2000/svg" viewBox="0 0 54 54"><defs><style>.cls-1{fill:#181818;}</style></defs><title>Resurs 97</title><g id="Lager_2" data-name="Lager 2"><g id="Lager_1-2" data-name="Lager 1"><circle class="cls-1" cx="32.5" cy="38.5" r="5"/><path class="cls-1" d="M16.25,40.16a3.59,3.59,0,1,0,3.59,3.59A3.59,3.59,0,0,0,16.25,40.16Z"/><path class="cls-1" d="M24.45,24.57A3.6,3.6,0,1,0,28,28.17,3.6,3.6,0,0,0,24.45,24.57Z"/><path class="cls-1" d="M53.76,51.05,36.5,19V4h2.86V0H14.53V4h3V19L.24,51.05a2,2,0,0,0,0,2A2,2,0,0,0,2,54H52a2,2,0,0,0,1.76-3ZM5.35,50,21.26,20.45a2,2,0,0,0,.24-.95V4h11V19.5a2,2,0,0,0,.24.95L48.65,50Z"/></g></g></svg>