<svg xmlns="http://www.w3.org/2000/svg" viewBox="0 0 51.33 64.56"><title>Resurs 182</title><g id="Lager_2" data-name="Lager 2"><g id="Lager_1-2" data-name="Lager 1"><path d="M36.25,21.19v0h-4a6.59,6.59,0,1,1-13.17,0h-4v0H0v16.7H9.33V64.56H42V38.23h9.33v-17Zm11.08,13H38V60.56H13.33V33.89H4v-8.7H15.88a10.58,10.58,0,0,0,19.57,0H47.33Z"/><path d="M16.65,10.53l2.12,3.39a11.88,11.88,0,0,1,12.7,0l2.13-3.39a15.88,15.88,0,0,0-17,0Z"/><path d="M25.67,4A19.91,19.91,0,0,1,36.26,7l2.12-3.39A24,24,0,0,0,13,3.65L15.07,7A19.94,19.94,0,0,1,25.67,4Z"/></g></g></svg>