<?xml version="1.0" encoding="utf-8"?>
<!-- Generator: Adobe Illustrator 22.0.1, SVG Export Plug-In . SVG Version: 6.00 Build 0)  -->
<svg version="1.1" id="Lager_1" xmlns="http://www.w3.org/2000/svg" xmlns:xlink="http://www.w3.org/1999/xlink" x="0px" y="0px"
	 viewBox="0 0 80.7 69.4" style="enable-background:new 0 0 80.7 69.4;" xml:space="preserve">
<style type="text/css">
	.st0{fill:#181818;}
</style>
<title>Resurs 86</title>
<g id="Lager_2_1_">
	<g id="Lager_1-2">
		<path class="st0" d="M68.7,69.4H12c-6.6,0-12-5.4-12-12s5.4-12,12-12h56.7c6.6,0,12,5.4,12,12S75.3,69.4,68.7,69.4z M12,49.4
			c-4.4,0-8,3.6-8,8s3.6,8,8,8h56.7c4.4,0,8-3.6,8-8s-3.6-8-8-8H12z"/>
		<path class="st0" d="M64.8,42.9H44V22.2h20.8V42.9z M48,38.9h12.8V26.2H48V38.9z"/>
		<polygon class="st0" points="35.2,42.9 14.5,42.9 14.5,26.2 12.3,26.2 12.3,22.2 18.5,22.2 18.5,38.9 31.2,38.9 31.2,22.2 
			37,22.1 37.1,26.1 35.2,26.1 		"/>
		<rect x="52.5" y="24.5" class="st0" width="4" height="5.5"/>
		<path class="st0" d="M13.5,63.2c-3.3,0-6-2.7-6-6s2.7-6,6-6s6,2.7,6,6S16.9,63.2,13.5,63.2L13.5,63.2z M13.5,55.2
			c-1.1,0-2,0.9-2,2s0.9,2,2,2s2-0.9,2-2S14.6,55.2,13.5,55.2z"/>
		<path class="st0" d="M40.2,63.2c-3.3,0-6-2.7-6-6s2.7-6,6-6s6,2.7,6,6S43.5,63.2,40.2,63.2z M40.2,55.2c-1.1,0-2,0.9-2,2
			s0.9,2,2,2s2-0.9,2-2S41.3,55.2,40.2,55.2z"/>
		<path class="st0" d="M66.9,63.2c-3.3,0-6-2.7-6-6s2.7-6,6-6c3.3,0,6,2.7,6,6S70.2,63.2,66.9,63.2z M66.9,55.2c-1.1,0-2,0.9-2,2
			s0.9,2,2,2s2-0.9,2-2S68,55.2,66.9,55.2z"/>
		<rect x="22.9" class="st0" width="4" height="17.1"/>
		<rect x="20.5" y="14.1" class="st0" width="8.9" height="4"/>
	</g>
</g>
</svg>
