<?xml version="1.0" encoding="utf-8"?>
<!-- Generator: Adobe Illustrator 22.0.1, SVG Export Plug-In . SVG Version: 6.00 Build 0)  -->
<svg version="1.1" id="Lager_1" xmlns="http://www.w3.org/2000/svg" xmlns:xlink="http://www.w3.org/1999/xlink" x="0px" y="0px"
	 viewBox="0 0 60 47" style="enable-background:new 0 0 60 47;" xml:space="preserve">
<style type="text/css">
	.st0{fill:#181818;}
</style>
<title>Resurs 74</title>
<g id="Lager_2_1_">
	<g id="Lager_1-2">
		<path class="st0" d="M5,4h50c0.6,0,1,0.4,1,1v30c0,0.6-0.4,1-1,1H5c-0.6,0-1-0.4-1-1V5C4,4.4,4.4,4,5,4 M5,0C2.2,0,0,2.2,0,5v30
			c0,2.8,2.2,5,5,5h50c2.8,0,5-2.2,5-5V5c0-2.8-2.2-5-5-5H5z"/>
		<path class="st0" d="M5,4h50c0.6,0,1,0.4,1,1v30c0,0.6-0.4,1-1,1H5c-0.6,0-1-0.4-1-1V5C4,4.4,4.4,4,5,4 M5,0C2.2,0,0,2.2,0,5v30
			c0,2.8,2.2,5,5,5h50c2.8,0,5-2.2,5-5V5c0-2.8-2.2-5-5-5H5z"/>
		<path class="st0" d="M30,12.5c-4.1,0-7.5,3.4-7.5,7.5s3.4,7.5,7.5,7.5s7.5-3.4,7.5-7.5S34.1,12.5,30,12.5z M28.2,23.3L28.2,23.3
			v-6.9l0,0l5.2,3.4L28.2,23.3z"/>
		<rect x="13.4" y="43" class="st0" width="32.2" height="4"/>
	</g>
</g>
</svg>
