<svg xmlns="http://www.w3.org/2000/svg" viewBox="0 0 40.49 65.23"><title>Resurs 181</title><g id="Lager_2" data-name="Lager 2"><g id="Lager_1-2" data-name="Lager 1"><path d="M37.13,65.23h3.36L20.8,29.06h18V21.89h-4v3.17H22.34V22.38h-4v2.68H6.46v-3h-4v7H19.64L0,65.23H37.13ZM16,44.16l6.81,3.1L12.47,50.64Zm1.91-3.52,2.32-4.28,3.86,7.09Zm9.69,9.26L33,59.74,15.36,53.9ZM9.47,56.17l15.26,5.06h-18Z"/><path d="M11.2,10.53l2.12,3.39a11.88,11.88,0,0,1,12.7,0l2.13-3.39a15.88,15.88,0,0,0-16.95,0Z"/><path d="M20.22,4A19.91,19.91,0,0,1,30.81,7l2.12-3.39a24,24,0,0,0-25.43,0L9.62,7A19.94,19.94,0,0,1,20.22,4Z"/></g></g></svg>