<svg xmlns="http://www.w3.org/2000/svg" viewBox="0 0 73.59 51.52"><title>Resurs 183</title><g id="Lager_2" data-name="Lager 2"><g id="Lager_1-2" data-name="Lager 1"><path d="M69.43,32.39S65.43,31,61.82,30c-7.58-2.25-18.28-4.46-18.73-4.56-1.67-.35-4.43-.76-6.14-.91-.18,0-4.44-.4-8.1-.36-4.67.05-8.13.4-10.42.63l-.16,0A47.68,47.68,0,0,0,9.2,26.2a33,33,0,0,0-5.44,2A7.37,7.37,0,0,0,0,34.38v7a5,5,0,0,0,5,5l2.34,0a7.49,7.49,0,0,0,14.15.12l27.11.25a7.5,7.5,0,0,0,13.88.12l6,.06h0a5,5,0,0,0,5-4.95l0-3.75A6.47,6.47,0,0,0,69.43,32.39ZM69.54,42a1,1,0,0,1-1,1h0l-5.57,0a7.49,7.49,0,0,0-14.8-.14l-26.38-.23a7.5,7.5,0,0,0-14.68-.14L5,42.4a1,1,0,0,1-1-1v-7a3.45,3.45,0,0,1,1.58-2.59,29.81,29.81,0,0,1,4.72-1.74,43.68,43.68,0,0,1,8.37-1.29l.15,0c2.23-.22,5.58-.56,10.08-.61h.55c3.32,0,7.09.35,7.13.35,1.57.14,4.18.53,5.7.85.11,0,11,2.28,18.4,4.47,3.53,1.05,7.42,2.37,7.46,2.39a2.46,2.46,0,0,1,1.45,2Z"/><path d="M27.78,10.53l2.12,3.39a11.88,11.88,0,0,1,12.7,0l2.12-3.39a15.87,15.87,0,0,0-16.94,0Z"/><path d="M36.79,4a19.94,19.94,0,0,1,10.6,3l2.12-3.39a24,24,0,0,0-25.43,0L26.2,7A19.91,19.91,0,0,1,36.79,4Z"/></g></g></svg>