<svg xmlns="http://www.w3.org/2000/svg" viewBox="0 0 45.87 74.43"><title>Resurs 188</title><g id="Lager_2" data-name="Lager 2"><g id="Lager_1-2" data-name="Lager 1"><path d="M45.26,21.42,45,20.3,43.85,20A18,18,0,0,0,21.13,37.68a16.76,16.76,0,0,0-1.66-1.93A18.13,18.13,0,0,0,2,31.08l-1.11.3L.61,32.5A18,18,0,0,0,21.08,55V74.43h4V43.92a17.71,17.71,0,0,0,2.72.22A18,18,0,0,0,45.26,21.42ZM20.53,51A14,14,0,0,1,4.22,34.69,14,14,0,0,1,20.53,51ZM37.77,36a14.14,14.14,0,0,1-12.43,3.89A14,14,0,0,1,41.65,23.61,14.11,14.11,0,0,1,37.77,36Z"/><path d="M14.18,10.53l2.13,3.39a11.88,11.88,0,0,1,12.7,0l2.12-3.39a15.88,15.88,0,0,0-16.95,0Z"/><path d="M23.2,4A19.88,19.88,0,0,1,33.79,7l2.13-3.39a24,24,0,0,0-25.44,0L12.6,7A19.94,19.94,0,0,1,23.2,4Z"/></g></g></svg>