<?xml version="1.0" encoding="utf-8"?>
<!-- Generator: Adobe Illustrator 22.0.1, SVG Export Plug-In . SVG Version: 6.00 Build 0)  -->
<svg version="1.1" id="Lager_1" xmlns="http://www.w3.org/2000/svg" xmlns:xlink="http://www.w3.org/1999/xlink" x="0px" y="0px"
	 viewBox="0 0 45 63" style="enable-background:new 0 0 45 63;" xml:space="preserve">
<style type="text/css">
	.st0{fill:#181818;}
</style>
<title>Resurs 75</title>
<g>
	<path class="st0" d="M26.5,27.3h-2.3v-2.2h5.5v-4h-5.5v-4.2h-4v4.2h-2.3c-0.2,0-0.3,0-0.5,0c-2.8,0.1-5,2.5-4.9,5.3
		c0.1,2.8,2.5,5,5.3,4.9h2.3v2.2H16h-2.2v4H16h4.2v4.2h4v-4.2h2.3c2.8,0,5.1-2.3,5.1-5.1S29.3,27.3,26.5,27.3z M17.8,27.3
		c-0.1,0-0.1,0-0.2,0c-0.6-0.1-1-0.6-1-1.2c0.1-0.6,0.6-1,1.2-1h2.3v2.2H17.8z M26.5,33.5h-2.3v-2.2h2.3c0.6,0,1.1,0.5,1.1,1.1
		C27.6,33,27.1,33.5,26.5,33.5z"/>
	<path class="st0" d="M22.8,49.6c-1.2-0.2-2.4,0.7-2.5,1.9c-0.2,1.2,0.7,2.4,1.9,2.5c1.2,0.2,2.4-0.7,2.5-1.9S24,49.8,22.8,49.6z"/>
	<path class="st0" d="M40.5,0C40.5,0,40.5,0,40.5,0h-36C2,0,0,2,0,4.5v54C0,61,2,63,4.5,63h36c2.5,0,4.5-2,4.5-4.5v-54
		C45,2,43,0,40.5,0z M41,58.5c0,0.3-0.2,0.5-0.5,0.5h-36C4.2,59,4,58.8,4,58.5v-54C4,4.2,4.2,4,4.5,4h36C40.8,4,41,4.2,41,4.5V58.5z
		"/>
</g>
</svg>
