<?xml version="1.0" encoding="utf-8"?>
<!-- Generator: Adobe Illustrator 22.0.1, SVG Export Plug-In . SVG Version: 6.00 Build 0)  -->
<svg version="1.1" id="Lager_1" xmlns="http://www.w3.org/2000/svg" xmlns:xlink="http://www.w3.org/1999/xlink" x="0px" y="0px"
	 viewBox="0 0 44 54.1" style="enable-background:new 0 0 44 54.1;" xml:space="preserve">
<style type="text/css">
	.st0{fill:#181818;}
</style>
<title>Resurs 71</title>
<g id="Lager_2_1_">
	<g id="Lager_1-2">
		<path class="st0" d="M22,54.1l-0.5-0.1C21.3,53.9,0,48.3,0,27V0h44v27c0,21.3-21.3,26.9-21.5,26.9L22,54.1z M4,4v23
			c0,16.5,15.1,22,18,22.9C25,49,40,43.7,40,27V4H4z"/>
		<rect x="15" y="34.5" class="st0" width="14.3" height="4"/>
		<rect x="18" y="41" class="st0" width="8.2" height="4"/>
		<polygon class="st0" points="22.4,8.4 25.1,16.6 33.7,16.6 26.7,21.7 29.4,30 22.4,24.9 15.4,30 18,21.7 11,16.6 19.7,16.6 		"/>
	</g>
</g>
</svg>
