<?xml version="1.0" encoding="utf-8"?>
<!-- Generator: Adobe Illustrator 22.0.1, SVG Export Plug-In . SVG Version: 6.00 Build 0)  -->
<svg version="1.1" id="Lager_1" xmlns="http://www.w3.org/2000/svg" xmlns:xlink="http://www.w3.org/1999/xlink" x="0px" y="0px"
	 viewBox="0 0 63 45" style="enable-background:new 0 0 63 45;" xml:space="preserve">
<style type="text/css">
	.st0{fill:#181818;}
</style>
<title>Resurs 72</title>
<g id="Lager_2_1_">
	<g id="Lager_1-2">
		<rect x="13.8" y="18.9" class="st0" width="22.5" height="7.2"/>
		<rect x="21.4" y="11.2" class="st0" width="7.2" height="22.5"/>
		<circle class="st0" cx="51.8" cy="22.7" r="2.2"/>
		<path class="st0" d="M4.5,0v4h54C58.8,4,59,4.2,59,4.5v36c0,0.1,0,0.3-0.1,0.3c-0.1,0.1-0.2,0.2-0.4,0.2h-54C4.2,41,4,40.8,4,40.5
			v-36C4,4.2,4.2,4,4.5,4V0 M4.5,0C2,0,0,2,0,4.5c0,0,0,0,0,0v36C0,43,2,45,4.5,45h54c2.5,0,4.5-2,4.5-4.5c0,0,0,0,0,0v-36
			C63,2,61,0,58.5,0H4.5z"/>
		<circle class="st0" cx="51.8" cy="22.7" r="2.2"/>
		<path class="st0" d="M4.5,0v4h54C58.8,4,59,4.2,59,4.5v36c0,0.1,0,0.3-0.1,0.3c-0.1,0.1-0.2,0.2-0.4,0.2h-54C4.2,41,4,40.8,4,40.5
			v-36C4,4.2,4.2,4,4.5,4V0 M4.5,0C2,0,0,2,0,4.5c0,0,0,0,0,0v36C0,43,2,45,4.5,45h54c2.5,0,4.5-2,4.5-4.5c0,0,0,0,0,0v-36
			C63,2,61,0,58.5,0H4.5z"/>
	</g>
</g>
</svg>
