<svg xmlns="http://www.w3.org/2000/svg" viewBox="0 0 80.18 73.89"><title>Resurs 176</title><g id="Lager_2" data-name="Lager 2"><g id="Lager_1-2" data-name="Lager 1"><rect x="0.18" y="69.89" width="80" height="4"/><path d="M65.85,55.89a8.84,8.84,0,0,0-2-9.79L54,36.32a22.51,22.51,0,0,0-16-6.57H0v4H19.11V44.37a.53.53,0,0,1-.53.53H0v4H18.58a4.53,4.53,0,0,0,4.53-4.53V33.75h6.43V44.42A4.53,4.53,0,0,0,34.07,49h27a5,5,0,0,1-3.52,8.5H0v4H57.55A8.83,8.83,0,0,0,65.85,55.89ZM33.54,44.42V33.75h4.52A18.54,18.54,0,0,1,51.2,39.16L57,45h-23A.53.53,0,0,1,33.54,44.42Z"/><path d="M31.71,10.53l2.12,3.39a11.88,11.88,0,0,1,12.7,0l2.12-3.39a15.87,15.87,0,0,0-16.94,0Z"/><path d="M40.72,4a19.94,19.94,0,0,1,10.6,3l2.12-3.39A24,24,0,0,0,28,3.65L30.13,7A19.88,19.88,0,0,1,40.72,4Z"/></g></g></svg>