<svg xmlns="http://www.w3.org/2000/svg" viewBox="0 0 74.75 65.76"><title>Resurs 175</title><g id="Lager_2" data-name="Lager 2"><g id="Lager_1-2" data-name="Lager 1"><rect x="54.75" y="25.62" width="20" height="4"/><rect y="25.62" width="20" height="4"/><path d="M62.75,38.31H11.8v-5h-4V48.34a4.51,4.51,0,0,0,4.5,4.5h7.34A21.78,21.78,0,0,0,15.4,65.76h4a18,18,0,0,1,5.49-12.92h25A18,18,0,0,1,55.4,65.76h4a21.84,21.84,0,0,0-4.23-12.92h7.08a4.51,4.51,0,0,0,4.5-4.5V33.27h-4Zm0,10a.5.5,0,0,1-.5.5H12.3a.5.5,0,0,1-.5-.5v-6h51Z"/><path d="M28.36,10.53l2.12,3.39a11.88,11.88,0,0,1,12.7,0l2.13-3.39a15.88,15.88,0,0,0-17,0Z"/><path d="M37.37,4A19.92,19.92,0,0,1,48,7l2.12-3.39a24,24,0,0,0-25.43,0L26.78,7A19.91,19.91,0,0,1,37.37,4Z"/></g></g></svg>