<?xml version="1.0" encoding="utf-8"?>
<!-- Generator: Adobe Illustrator 22.0.1, SVG Export Plug-In . SVG Version: 6.00 Build 0)  -->
<svg version="1.1" id="Lager_1" xmlns="http://www.w3.org/2000/svg" xmlns:xlink="http://www.w3.org/1999/xlink" x="0px" y="0px"
	 viewBox="0 0 45 45" style="enable-background:new 0 0 45 45;" xml:space="preserve">
<style type="text/css">
	.st0{fill:#181818;}
</style>
<title>Resurs 83</title>
<g id="Lager_2_1_">
	<g id="Lager_1-2">
		<path class="st0" d="M22.5,0C10.1,0,0,10.1,0,22.5S10.1,45,22.5,45S45,34.9,45,22.5S34.9,0,22.5,0z M16.3,18.4h-1.5v8.3h1.5v1.6
			h-5v-1.6h1.6v-8.3h-1.5v-1.6h5L16.3,18.4z M25.6,24.4c0,2.3-1.3,4.1-3.9,4.1s-3.9-1.9-3.9-4.1v-0.5c0-2.3,1.3-4.1,3.9-4.1
			s3.9,1.9,3.9,4.1V24.4z M35.6,18.6h-3.5v9.8h-1.9v-9.7h-3.5v-1.8h8.9L35.6,18.6z"/>
		<path class="st0" d="M21.8,21.5c-1.4,0-2,1.1-2,2.5v0.4c0,1.4,0.6,2.5,2,2.5s2-1,2-2.5V24C23.8,22.6,23.2,21.5,21.8,21.5z"/>
	</g>
</g>
</svg>
