<svg xmlns="http://www.w3.org/2000/svg" viewBox="0 0 69.56 69.06"><title>Resurs 180</title><g id="Lager_2" data-name="Lager 2"><g id="Lager_1-2" data-name="Lager 1"><path d="M69.56,38.75a6.36,6.36,0,0,0-6.36-6.36H45.5V25.6H0V62.26H7.92a7.5,7.5,0,0,0,14.92.11H48.53a7.5,7.5,0,0,0,14.92-.11h6.11Zm-4,0v6.56H57.81V36.39H63.2A2.36,2.36,0,0,1,65.56,38.75ZM4,29.6H41.5V58.26H22.11a7.48,7.48,0,0,0-13.45,0H4ZM62.71,58.26a7.48,7.48,0,0,0-13.45,0H45.5V36.39h8.31V49.31H65.56v8.95Z"/><path d="M25.77,10.53l2.12,3.39a11.88,11.88,0,0,1,12.7,0l2.12-3.39a15.87,15.87,0,0,0-16.94,0Z"/><path d="M34.78,4a19.94,19.94,0,0,1,10.6,3L47.5,3.65a24,24,0,0,0-25.44,0L24.19,7A19.88,19.88,0,0,1,34.78,4Z"/></g></g></svg>