<svg xmlns="http://www.w3.org/2000/svg" viewBox="0 0 80 71.1"><title>Resurs 177</title><g id="Lager_2" data-name="Lager 2"><g id="Lager_1-2" data-name="Lager 1"><path d="M74.37,65.39a13.15,13.15,0,0,0-7.7-2.29A12.82,12.82,0,0,0,61,64.29l18-24.69H49.5v-15H.5v19H71.07L54,67.08l-.66,0a9.33,9.33,0,0,1-5.63-1.71A13.15,13.15,0,0,0,40,63.1a13.15,13.15,0,0,0-7.7,2.29,9.33,9.33,0,0,1-5.63,1.71A9.38,9.38,0,0,1,21,65.39a13.15,13.15,0,0,0-7.7-2.29,13.15,13.15,0,0,0-7.7,2.29A9.38,9.38,0,0,1,0,67.1v4a13.23,13.23,0,0,0,7.7-2.28,9.32,9.32,0,0,1,5.64-1.72A9.32,9.32,0,0,1,19,68.82a13.23,13.23,0,0,0,7.7,2.28,13.17,13.17,0,0,0,7.69-2.28A9.32,9.32,0,0,1,40,67.1a9.32,9.32,0,0,1,5.64,1.72,13.2,13.2,0,0,0,7.69,2.28A13.23,13.23,0,0,0,61,68.82a10.09,10.09,0,0,1,11.27,0A13.17,13.17,0,0,0,80,71.1v-4A9.33,9.33,0,0,1,74.37,65.39ZM19.5,28.6h11v11h-11Zm-15,0h11v11H4.5Zm30,11v-11h11v11Z"/><circle cx="60" cy="49.1" r="2.5"/><path d="M31,10.53l2.13,3.39a11.88,11.88,0,0,1,12.7,0l2.12-3.39a15.88,15.88,0,0,0-16.95,0Z"/><path d="M40,4A19.94,19.94,0,0,1,50.6,7l2.12-3.39a24,24,0,0,0-25.44,0L29.4,7A19.94,19.94,0,0,1,40,4Z"/></g></g></svg>