<svg xmlns="http://www.w3.org/2000/svg" viewBox="0 0 79.03 71.06"><title>Resurs 178</title><g id="Lager_2" data-name="Lager 2"><g id="Lager_1-2" data-name="Lager 1"><path d="M72,27.07H7a7,7,0,0,0-7,7v32H8.2a7.49,7.49,0,0,0,14.13,0H56.46a7.49,7.49,0,0,0,14.13,0H79v-32A7,7,0,0,0,72,27.07Zm3,7v9.24H67.45V31.07H72A3,3,0,0,1,75,34.07ZM63.45,43.44H46.16V31.07H63.45Zm-39.25,0V31.07h18V43.44ZM7,31.07H20.2V43.44H4V34.07A3,3,0,0,1,7,31.07ZM4,47.44H64.45v-.13H75V62.06H70.88a7.5,7.5,0,0,0-14.7,0H22.61a7.5,7.5,0,0,0-14.7,0H4Z"/><path d="M30.5,10.53l2.12,3.39a11.88,11.88,0,0,1,12.7,0l2.13-3.39a15.88,15.88,0,0,0-17,0Z"/><path d="M39.51,4a19.94,19.94,0,0,1,10.6,3l2.12-3.39a24,24,0,0,0-25.43,0L28.92,7A19.91,19.91,0,0,1,39.51,4Z"/></g></g></svg>