<svg xmlns="http://www.w3.org/2000/svg" viewBox="0 0 79.03 69.06"><title>Resurs 179</title><g id="Lager_2" data-name="Lager 2"><g id="Lager_1-2" data-name="Lager 1"><path d="M79,34.07a7,7,0,0,0-7-7H0v36H6.58a7.5,7.5,0,0,0,14.57.5h3.77a7.5,7.5,0,0,0,14.45,0H57.3a7.5,7.5,0,0,0,14.45,0H79Zm-4,0v7H66.44v-10H72A3,3,0,0,1,75,34.07Zm-71-3H47.5v28H39.21a7.49,7.49,0,0,0-14.13,0H21a7.49,7.49,0,0,0-14.13,0H4ZM71.75,59.56a7.49,7.49,0,0,0-14.44,0H51.94v-.5H51.5v-28H62.44v14H75v14.5Z"/><path d="M30.5,10.53l2.12,3.39a11.88,11.88,0,0,1,12.7,0l2.13-3.39a15.88,15.88,0,0,0-17,0Z"/><path d="M39.51,4a19.94,19.94,0,0,1,10.6,3l2.12-3.39a24,24,0,0,0-25.43,0L28.92,7A19.91,19.91,0,0,1,39.51,4Z"/></g></g></svg>