<svg xmlns="http://www.w3.org/2000/svg" viewBox="0 0 54.66 72.68"><title>Resurs 187</title><g id="Lager_2" data-name="Lager 2"><g id="Lager_1-2" data-name="Lager 1"><rect x="30.16" y="32.59" width="5" height="5"/><rect x="40.16" y="32.59" width="5" height="5"/><rect x="30.16" y="42.59" width="5" height="5"/><rect x="40.16" y="42.59" width="5" height="5"/><rect x="30.16" y="52.59" width="5" height="5"/><path d="M20.66,23.18V37.59H0V72.68H24.66V27.18h26v45.5h4V23.18ZM10.25,67.53h-5v-5h5Zm0-10h-5v-5h5Zm0-10h-5v-5h5Zm10,20.05h-5v-5h5Zm0-10h-5v-5h5Zm0-10h-5v-5h5Z"/><rect x="40.16" y="52.59" width="5" height="5"/><rect x="30.16" y="62.59" width="5" height="5"/><rect x="40.16" y="62.59" width="5" height="5"/><path d="M28.53,10.53l2.13,3.39a11.88,11.88,0,0,1,12.7,0l2.12-3.39a15.88,15.88,0,0,0-16.95,0Z"/><path d="M37.55,4A19.88,19.88,0,0,1,48.14,7l2.13-3.39a24,24,0,0,0-25.44,0L27,7A19.94,19.94,0,0,1,37.55,4Z"/></g></g></svg>