<?xml version="1.0" encoding="utf-8"?>
<!-- Generator: Adobe Illustrator 22.0.1, SVG Export Plug-In . SVG Version: 6.00 Build 0)  -->
<svg version="1.1" id="Lager_1" xmlns="http://www.w3.org/2000/svg" xmlns:xlink="http://www.w3.org/1999/xlink" x="0px" y="0px"
	 viewBox="0 0 71.8 45.7" style="enable-background:new 0 0 71.8 45.7;" xml:space="preserve">
<style type="text/css">
	.st0{fill:#181818;}
</style>
<title>Resurs 65</title>
<g>
	<circle class="st0" cx="12.9" cy="9.3" r="2.2"/>
	<path class="st0" d="M67.2,41.7c0.1-0.4,0.2-0.8,0.2-1.2c0,0,0,0,0,0v-36c0-2.5-2-4.5-4.5-4.5h-54C6.4,0,4.4,2,4.4,4.5c0,0,0,0,0,0
		v36c0,0.4,0.1,0.8,0.2,1.2H0v4h71.8v-4H67.2z M8.4,4.5c0-0.1,0-0.3,0.1-0.3C8.6,4.1,8.7,4,8.9,4h54c0.3,0,0.5,0.2,0.5,0.5v36
		c0,0.3-0.2,0.5-0.5,0.5h-54c-0.3,0-0.5-0.2-0.5-0.5V4.5z"/>
</g>
</svg>
