<svg xmlns="http://www.w3.org/2000/svg" viewBox="0 0 41.37 60.45"><defs><style>.cls-1{fill:#181818;}</style></defs><title>Resurs 171</title><g id="Lager_2" data-name="Lager 2"><g id="Lager_1-2" data-name="Lager 1"><polygon class="cls-1" points="39.55 4.52 35.02 0 6.2 0 1.82 4.38 4.65 7.21 7.86 4 18.86 4 18.86 20.27 22.86 20.27 22.86 4 33.37 4 36.72 7.35 39.55 4.52"/><polygon class="cls-1" points="22.95 32.39 18.95 32.39 18.95 56.45 14.04 56.45 14.04 60.45 27.71 60.45 27.71 56.45 22.95 56.45 22.95 32.39"/><path class="cls-1" d="M30.85,35.35l-3.39-2.12a11.93,11.93,0,0,0,0-12.7l3.39-2.13a15.94,15.94,0,0,1,0,17Z"/><path class="cls-1" d="M37.72,40.14,34.33,38a20,20,0,0,0,0-21.19l3.39-2.12a24,24,0,0,1,0,25.44Z"/><circle class="cls-1" cx="20.77" cy="26.35" r="3"/><path class="cls-1" d="M10.53,35.35l3.39-2.12a11.88,11.88,0,0,1,0-12.7L10.53,18.4a15.88,15.88,0,0,0,0,17Z"/><path class="cls-1" d="M3.65,40.14,7,38A20,20,0,0,1,7,16.82L3.65,14.7a24,24,0,0,0,0,25.44Z"/></g></g></svg>