<svg xmlns="http://www.w3.org/2000/svg" viewBox="0 0 52.54 68.5"><title>Resurs 156</title><g id="Lager_2" data-name="Lager 2"><g id="Lager_1-2" data-name="Lager 1"><rect x="32.38" y="26.25" width="4" height="16"/><rect x="24.28" y="26.25" width="4" height="16"/><rect x="48.54" y="26.25" width="4" height="16"/><rect x="40.43" y="26.25" width="4" height="16"/><path d="M10.08,68.5A10.09,10.09,0,0,1,0,58.42V10.08a10.09,10.09,0,0,1,20.17,0V58.42A10.1,10.1,0,0,1,10.08,68.5Zm0-64.5A6.09,6.09,0,0,0,4,10.08V58.42a6.09,6.09,0,0,0,12.17,0V10.08A6.09,6.09,0,0,0,10.08,4Z"/></g></g></svg>