<svg xmlns="http://www.w3.org/2000/svg" viewBox="0 0 55.26 68.5"><title>Resurs 157</title><g id="Lager_2" data-name="Lager 2"><g id="Lager_1-2" data-name="Lager 1"><rect x="33.84" y="9.51" width="4" height="16" transform="translate(-2.86 7.83) rotate(-12)"/><rect x="25.91" y="11.2" width="4" height="16" transform="translate(-3.38 6.22) rotate(-12)"/><rect x="49.64" y="6.15" width="4" height="16" transform="translate(-1.81 11.04) rotate(-12)"/><rect x="41.71" y="7.84" width="4" height="16" transform="matrix(0.98, -0.21, 0.21, 0.98, -2.34, 9.43)"/><rect x="27.84" y="48.05" width="16" height="4" transform="translate(-20.57 74.7) rotate(-77.99)"/><rect x="19.91" y="46.37" width="16" height="4" transform="translate(-25.21 65.6) rotate(-77.99)"/><rect x="43.64" y="51.41" width="16" height="4" transform="translate(-11.35 92.81) rotate(-77.99)"/><rect x="35.71" y="49.73" width="16" height="4" transform="translate(-15.98 83.72) rotate(-77.99)"/><path d="M10.08,0A10.09,10.09,0,0,0,0,10.08V58.42a10.09,10.09,0,0,0,20.17,0V10.08A10.1,10.1,0,0,0,10.08,0Zm6.09,58.42A6.09,6.09,0,0,1,4,58.42V10.08a6.09,6.09,0,0,1,12.17,0Z"/></g></g></svg>