<svg xmlns="http://www.w3.org/2000/svg" viewBox="0 0 26.13 72.75"><title>Resurs 161</title><g id="Lager_2" data-name="Lager 2"><g id="Lager_1-2" data-name="Lager 1"><path d="M15.61,20.65l-3.39-2.12a12,12,0,0,0,1.83-6.35,11.93,11.93,0,0,0-1.83-6.35L15.61,3.7a16,16,0,0,1,2.44,8.48A15.92,15.92,0,0,1,15.61,20.65Z"/><path d="M22.49,25.44l-3.4-2.13a19.91,19.91,0,0,0,3-10.59,19.94,19.94,0,0,0-3-10.6L22.49,0a24,24,0,0,1,3.64,12.72A24,24,0,0,1,22.49,25.44Z"/><circle cx="4" cy="12.18" r="4"/><rect x="1.96" y="20.3" width="4" height="52.45"/></g></g></svg>