<svg xmlns="http://www.w3.org/2000/svg" viewBox="0 0 71.33 40.67"><title>Resurs 113</title><g id="Lager_2" data-name="Lager 2"><g id="Lager_1-2" data-name="Lager 1"><path d="M65.33,36.67V2a2,2,0,0,0-2-2H8A2,2,0,0,0,6,2V36.67H0v4H71.33v-4ZM10,36.67V4H61.33V36.67Z"/><path d="M14.76,6.61a2,2,0,1,0,2,2A2,2,0,0,0,14.76,6.61Z"/><path d="M28.2,23.71H22.41c-1.1,0-4.73.44-5.3,6.1l4,.4c.12-1.14.44-2.5,1.32-2.5H28.2c.88,0,1.21,1.36,1.32,2.5l4-.4C32.93,24.15,29.3,23.71,28.2,23.71Z"/><path d="M25.13,23.2h.51a5.2,5.2,0,0,0,5.2-5.2V15.52a5.2,5.2,0,0,0-5.2-5.2h-.51a5.2,5.2,0,0,0-5.2,5.2V18A5.2,5.2,0,0,0,25.13,23.2Zm-1.2-7.68a1.22,1.22,0,0,1,1.2-1.2h.51a1.22,1.22,0,0,1,1.2,1.2V18a1.21,1.21,0,0,1-1.2,1.2h-.51a1.21,1.21,0,0,1-1.2-1.2Z"/><path d="M48.08,23.71H42.29c-1.1,0-4.73.44-5.3,6.1l4,.4c.11-1.14.43-2.5,1.32-2.5h5.79c.88,0,1.2,1.36,1.32,2.5l4-.4C52.8,24.15,49.18,23.71,48.08,23.71Z"/><path d="M45,23.2h.52A5.2,5.2,0,0,0,50.71,18V15.52a5.2,5.2,0,0,0-5.19-5.2H45a5.2,5.2,0,0,0-5.2,5.2V18A5.2,5.2,0,0,0,45,23.2Zm-1.2-7.68a1.22,1.22,0,0,1,1.2-1.2h.52a1.21,1.21,0,0,1,1.19,1.2V18a1.2,1.2,0,0,1-1.19,1.2H45A1.21,1.21,0,0,1,43.8,18Z"/></g></g></svg>