<?xml version="1.0" encoding="utf-8"?>
<!-- Generator: Adobe Illustrator 22.0.1, SVG Export Plug-In . SVG Version: 6.00 Build 0)  -->
<svg version="1.1" id="Lager_1" xmlns="http://www.w3.org/2000/svg" xmlns:xlink="http://www.w3.org/1999/xlink" x="0px" y="0px"
	 viewBox="0 0 63.1 44.8" style="enable-background:new 0 0 63.1 44.8;" xml:space="preserve">
<style type="text/css">
	.st0{fill:#181818;}
</style>
<title>Resurs 38</title>
<g>
	<path class="st0" d="M49.2,21.3c3.8,0,6.9-3.1,6.9-6.9c0-3.8-3.1-6.9-6.8-6.9c0,0,0,0,0,0c-3.8,0-6.9,3.1-6.9,6.9
		S45.4,21.3,49.2,21.3z M49.1,11.2v3.2h3.4c0,1.8-1.4,3.2-3.2,3.2c-1.8,0-3.3-1.4-3.3-3.2c0,0,0,0,0,0C46,12.7,47.4,11.3,49.1,11.2z
		"/>
	<rect x="44.3" y="25.1" class="st0" width="4" height="11.9"/>
	<rect x="50.1" y="30.1" class="st0" width="4" height="6.9"/>
	<path class="st0" d="M61.3,0H1.9c-0.5,0-1,0.2-1.3,0.5C0.2,0.9,0,1.4,0,1.9V43c0,1,0.8,1.8,1.9,1.8h59.4c0.5,0,1-0.2,1.3-0.5
		c0.3-0.3,0.5-0.8,0.5-1.3V1.9C63.1,0.8,62.3,0,61.3,0z M59.4,41.1H3.7l0-37.4h55.7V41.1z"/>
	<path class="st0" d="M13.3,37.2c2.4,0,4.5-1.5,5.5-3.5H29c0.9,2.1,3,3.5,5.5,3.5c3.3,0,6-2.7,6-6c0-3.3-2.7-6-6-6
		c-0.3,0-0.6,0-0.9,0.1l-5.1-7.8c0.8-1,1.2-2.2,1.2-3.6c0-3.3-2.7-6-6-6c-3.3,0-6,2.7-6,6c0,1.3,0.4,2.5,1.2,3.5l-5,7.8
		c-0.2,0-0.5,0-0.7,0c-3.3,0-6,2.7-6,6C7.3,34.6,10,37.2,13.3,37.2z M23.8,19.9c0.5,0,1-0.1,1.5-0.2l4.8,7.4
		c-0.7,0.7-1.1,1.6-1.4,2.5h-9.6c-0.3-1-0.8-1.9-1.5-2.6l4.7-7.3C22.8,19.9,23.3,19.9,23.8,19.9z M36.5,31.2c0,1.1-0.9,2-2,2
		s-2-0.9-2-2c0-1.1,0.9-2,2-2S36.5,30.1,36.5,31.2z M23.8,11.9c1.1,0,2,0.9,2,2c0,1.1-0.9,2-2,2c-1.1,0-2-0.9-2-2
		C21.8,12.8,22.7,11.9,23.8,11.9z M13.3,29.2c1.1,0,2,0.9,2,2c0,1.1-0.9,2-2,2c-1.1,0-2-0.9-2-2C11.3,30.1,12.2,29.2,13.3,29.2z"/>
</g>
</svg>
