<svg xmlns="http://www.w3.org/2000/svg" viewBox="0 0 66.99 67.19"><defs><style>.cls-1{fill:#181818;}</style></defs><title>Resurs 154</title><g id="Lager_2" data-name="Lager 2"><g id="Lager_1-2" data-name="Lager 1"><path class="cls-1" d="M55.88,45a11,11,0,0,0-6.28,2L44,41.32a12.88,12.88,0,0,0,0-15.25l5.74-5.73a11.19,11.19,0,1,0-2.87-2.79l-5.7,5.69a12.88,12.88,0,0,0-15.25,0L20.17,17.5a11.1,11.1,0,1,0-2.85,2.8l5.76,5.77a12.92,12.92,0,0,0,0,15.25L17.44,47a11.13,11.13,0,1,0,2.82,2.84l5.65-5.66a12.88,12.88,0,0,0,15.25,0l5.61,5.6A11.1,11.1,0,1,0,55.88,45Zm0-41a7.11,7.11,0,1,1-7.1,7.1A7.12,7.12,0,0,1,55.88,4ZM11.1,18.21a7.11,7.11,0,1,1,7.11-7.11A7.12,7.12,0,0,1,11.1,18.21Zm0,45a7.11,7.11,0,1,1,7.11-7.11A7.12,7.12,0,0,1,11.1,63.19ZM24.59,33.7a9,9,0,1,1,9,8.95A9,9,0,0,1,24.59,33.7ZM55.88,63.19A7.11,7.11,0,1,1,63,56.08,7.12,7.12,0,0,1,55.88,63.19Z"/></g></g></svg>