<?xml version="1.0" encoding="utf-8"?>
<!-- Generator: Adobe Illustrator 22.0.1, SVG Export Plug-In . SVG Version: 6.00 Build 0)  -->
<svg version="1.1" id="Lager_1" xmlns="http://www.w3.org/2000/svg" xmlns:xlink="http://www.w3.org/1999/xlink" x="0px" y="0px"
	 viewBox="0 0 68.7 59.1" style="enable-background:new 0 0 68.7 59.1;" xml:space="preserve">
<style type="text/css">
	.st0{fill:#181818;}
</style>
<title>Resurs 35</title>
<g id="Lager_2_1_">
	<g id="Lager_1-2">
		<path class="st0" d="M34.2,4c4.4,0,8,3.6,8,8s-3.6,8-8,8s-8-3.6-8-8S29.8,4,34.2,4 M34.2,0c-6.6,0-12,5.4-12,12s5.4,12,12,12
			s12-5.4,12-12S40.8,0,34.2,0"/>
		<path class="st0" d="M56.7,39.1c4.4,0,8,3.6,8,8s-3.6,8-8,8s-8-3.6-8-8S52.2,39.1,56.7,39.1 M56.7,35.1c-6.6,0-12,5.4-12,12
			s5.4,12,12,12s12-5.4,12-12S63.3,35.1,56.7,35.1"/>
		<path class="st0" d="M12,38.6c4.4,0,8,3.6,8,8s-3.6,8-8,8s-8-3.6-8-8S7.6,38.6,12,38.6 M12,34.6c-6.6,0-12,5.4-12,12s5.4,12,12,12
			s12-5.4,12-12S18.6,34.6,12,34.6"/>
		<rect x="40.6" y="20.5" transform="matrix(0.8319 -0.555 0.555 0.8319 -10.0484 28.8806)" class="st0" width="4" height="21.1"/>
		<path class="st0" d="M52.8,37.8l-2.8-4.1l3.3-2.2l2.8,4.1L52.8,37.8z M47.8,30.4L45,26.2l3.3-2.2l2.8,4.1L47.8,30.4z M42.8,22.9
			L40,18.8l3.3-2.2l2.8,4.1L42.8,22.9z"/>
		<path class="st0" d="M15.4,37.3l-3.3-2.2l2.8-4.2l3.3,2.2L15.4,37.3z M20.5,29.8l-3.3-2.2l2.8-4.2l3.3,2.2L20.5,29.8z M25.5,22.3
			l-3.3-2.2l1.7-2.5l3.3,2.2L25.5,22.3z"/>
		
			<rect x="13.6" y="29.3" transform="matrix(0.5602 -0.8284 0.8284 0.5602 -14.9037 34.5324)" class="st0" width="22.9" height="4"/>
		<rect x="33" y="32.7" transform="matrix(2.094442e-03 -1 1 2.094442e-03 -9.6284 79.4782)" class="st0" width="4" height="23.8"/>
		<path class="st0" d="M45.7,52.9h-5v-4h5V52.9z M36.7,52.9h-5v-4h5V52.9z M27.7,52.9h-5v-4h5V52.9z"/>
	</g>
</g>
</svg>
