<svg xmlns="http://www.w3.org/2000/svg" viewBox="0 0 66.99 67.19"><defs><style>.cls-1{fill:#181818;fill-rule:evenodd;}</style></defs><title>Resurs 143</title><g id="Lager_2" data-name="Lager 2"><g id="Lager_1-2" data-name="Lager 1"><path class="cls-1" d="M55.88,45a11,11,0,0,0-6.28,2L44,41.32a12.88,12.88,0,0,0,0-15.25l5.74-5.73a11.19,11.19,0,1,0-2.87-2.79l-5.7,5.69a12.88,12.88,0,0,0-15.25,0L20.17,17.5a11.1,11.1,0,1,0-2.85,2.8l5.76,5.77a12.92,12.92,0,0,0,0,15.25L17.44,47a11.13,11.13,0,1,0,2.82,2.84l5.65-5.66a12.88,12.88,0,0,0,15.25,0l5.61,5.6A11.1,11.1,0,1,0,55.88,45Zm0-41a7.11,7.11,0,1,1-7.1,7.1A7.12,7.12,0,0,1,55.88,4ZM11.1,18.21a7.11,7.11,0,1,1,7.11-7.11A7.12,7.12,0,0,1,11.1,18.21Zm0,45a7.11,7.11,0,1,1,7.11-7.11A7.12,7.12,0,0,1,11.1,63.19Zm18.48-25.3a4.13,4.13,0,0,1-2.08-.53V36.15a4,4,0,0,0,2.07.59c1.14,0,1.62-.62,1.62-1.36s-.45-1.21-1.41-1.21a2.25,2.25,0,0,0-1.12.27l-1-.34.47-3.92h3.9v1.11h-2.9l-.23,1.9a3.16,3.16,0,0,1,1-.16,2.25,2.25,0,0,1,2.45,2.33A2.52,2.52,0,0,1,29.58,37.89ZM39.63,37a3.69,3.69,0,0,1-2.61.92,3.37,3.37,0,0,1-3.55-3.68v-.49A3.43,3.43,0,0,1,37.09,30a4,4,0,0,1,2.16.57v1.22a4.5,4.5,0,0,0-2.15-.6,2.26,2.26,0,0,0-2.38,2.52v.43c0,1.46.73,2.52,2.27,2.52a2.92,2.92,0,0,0,1.42-.32V34.72H36.72V33.53h2.91ZM55.88,63.19A7.11,7.11,0,1,1,63,56.08,7.12,7.12,0,0,1,55.88,63.19Z"/></g></g></svg>