<svg xmlns="http://www.w3.org/2000/svg" viewBox="0 0 65.43 65.63"><defs><style>.cls-1{fill:#181818;}</style></defs><title>Resurs 107</title><g id="Lager_2" data-name="Lager 2"><g id="Lager_1-2" data-name="Lager 1"><path class="cls-1" d="M33,28.17A4.87,4.87,0,1,0,37.84,33,4.88,4.88,0,0,0,33,28.17Zm0,7.3A2.43,2.43,0,1,1,35.41,33,2.43,2.43,0,0,1,33,35.47Z"/><path class="cls-1" d="M54.59,43.94a10.81,10.81,0,0,0-6.1,1.87L43.8,41.12l3-5.24-3.43-2c0-.28,0-.57,0-.86s0-.58,0-.86l3.43-2-3.11-5.4,4.9-4.91a10.87,10.87,0,1,0-2.87-2.78L38.6,24.25a13.1,13.1,0,0,0-1.16-.64v-4H28.51v4.05a9.86,9.86,0,0,0-1.38.79l-7.4-7.4a10.77,10.77,0,1,0-2.85,2.81l5.21,5.21-3,5.13,3.52,2c0,.27,0,.54,0,.81s0,.54,0,.81l-3.52,2,2.86,5-5,5a10.84,10.84,0,1,0,4.7,8.93,10.71,10.71,0,0,0-1.88-6.09l6.84-6.84.44-.25a9.52,9.52,0,0,0,1.42.82v4h8.93v-4a10,10,0,0,0,1.31-.74l6.9,6.91a10.84,10.84,0,1,0,8.94-4.7ZM54.59,4a6.85,6.85,0,1,1-6.85,6.84A6.85,6.85,0,0,1,54.59,4ZM10.84,17.69a6.85,6.85,0,1,1,6.85-6.85A6.85,6.85,0,0,1,10.84,17.69Zm0,43.94a6.85,6.85,0,1,1,6.85-6.85A6.86,6.86,0,0,1,10.84,61.63ZM41.46,40.3l-1.33-.78-1.33-.77-1.27.88a9.1,9.1,0,0,1-1.13.64l-1.4.66V44H30.94V40.9l-1.37-.67a7.08,7.08,0,0,1-1.09-.63l-1.27-.88-1.34.77-1.39.81-2-3.53L23.87,36l1.32-.77-.12-1.53c0-.25,0-.44,0-.62s0-.37,0-.62l.12-1.53-1.32-.77-1.42-.81,2-3.53,1.39.81,1.34.77,1.27-.88a7.08,7.08,0,0,1,1.09-.63l1.37-.67V22.05H35v3.11l1.4.65a9.1,9.1,0,0,1,1.13.64l1.27.88,1.33-.77,1.33-.78,2,3.53-1.33.76-1.33.77L41,32.38c0,.27,0,.47,0,.66s0,.39,0,.66l-.12,1.54,1.33.77,1.33.76ZM54.59,61.63a6.85,6.85,0,1,1,6.84-6.85A6.86,6.86,0,0,1,54.59,61.63Z"/></g></g></svg>