<?xml version="1.0" encoding="utf-8"?>
<!-- Generator: Adobe Illustrator 22.0.1, SVG Export Plug-In . SVG Version: 6.00 Build 0)  -->
<svg version="1.1" id="Lager_1" xmlns="http://www.w3.org/2000/svg" xmlns:xlink="http://www.w3.org/1999/xlink" x="0px" y="0px"
	 viewBox="0 0 52.1 51.1" style="enable-background:new 0 0 52.1 51.1;" xml:space="preserve">
<style type="text/css">
	.st0{fill:#181818;}
</style>
<title>Resurs 52</title>
<path class="st0" d="M35.6,1.8C22.2-3.5,7.1,3.1,1.8,16.5S3.1,45,16.5,50.3l2,0.8l6.9-22.8L24,27.5c-1.4-0.8-2.3-2.3-2.3-3.9
	c0-1.7,1-3.2,2.5-3.9c2.2-1.1,4.8-0.2,5.9,2s0.2,4.8-2,5.9l-1.5,0.8l6.9,22.8l2-0.8c10-3.9,16.6-13.5,16.6-24.3
	C52.1,15.3,45.6,5.7,35.6,1.8z M36,45.7l-4.7-15.5c0.4-0.3,0.9-0.7,1.2-1.2c3-3.5,2.6-8.8-0.9-11.9c-3.5-3-8.8-2.6-11.9,0.9
	c-3,3.5-2.6,8.8,0.9,11.9L16,45.7C8.6,41.9,4,34.3,4,26.1c0-8.3,4.7-15.9,12.1-19.7C27,0.9,40.2,5.2,45.7,16.1
	C51.2,27,46.9,40.2,36,45.7z"/>
</svg>
