<svg xmlns="http://www.w3.org/2000/svg" viewBox="0 0 72.48 44.28"><title>Resurs 156</title><g id="Lager_2" data-name="Lager 2"><g id="Lager_1-2" data-name="Lager 1"><path d="M7.8,9.94A2.1,2.1,0,1,0,9.9,7.85,2.1,2.1,0,0,0,7.8,9.94Z"/><path d="M51.89,22.23A2.09,2.09,0,1,0,54,20.13,2.09,2.09,0,0,0,51.89,22.23Z"/><polygon points="60 30.53 60 40.28 4 40.28 4 4 60 4 60 14.41 64 14.41 64 0 0 0 0 44.28 64 44.28 64 30.53 60 30.53"/><path d="M62.09,20.13a2.1,2.1,0,1,0,2.09,2.1A2.1,2.1,0,0,0,62.09,20.13Z"/><path d="M70.39,20.13a2.1,2.1,0,1,0,2.09,2.1A2.1,2.1,0,0,0,70.39,20.13Z"/></g></g></svg>