<?xml version="1.0" encoding="utf-8"?>
<!-- Generator: Adobe Illustrator 22.0.1, SVG Export Plug-In . SVG Version: 6.00 Build 0)  -->
<svg version="1.1" id="Lager_1" xmlns="http://www.w3.org/2000/svg" xmlns:xlink="http://www.w3.org/1999/xlink" x="0px" y="0px"
	 viewBox="0 0 80.7 54.4" style="enable-background:new 0 0 80.7 54.4;" xml:space="preserve">
<style type="text/css">
	.st0{fill:#181818;}
</style>
<title>Resurs 80</title>
<g>
	<path class="st0" d="M68.7,15.3H12c-6.6,0-12,5.4-12,12s5.4,12,12,12h56.7c6.6,0,12-5.4,12-12S75.3,15.3,68.7,15.3z M68.7,35.3H12
		c-4.4,0-8-3.6-8-8s3.6-8,8-8h56.7c4.4,0,8,3.6,8,8S73.1,35.3,68.7,35.3z"/>
	<path class="st0" d="M13.5,21.1c-3.3,0-6,2.7-6,6s2.7,6,6,6c3.3,0,6-2.7,6-6S16.9,21.1,13.5,21.1z M13.5,29.1c-1.1,0-2-0.9-2-2
		s0.9-2,2-2c1.1,0,2,0.9,2,2S14.6,29.1,13.5,29.1z"/>
	<path class="st0" d="M40.2,21.1c-3.3,0-6,2.7-6,6s2.7,6,6,6c3.3,0,6-2.7,6-6S43.5,21.1,40.2,21.1z M40.2,29.1c-1.1,0-2-0.9-2-2
		s0.9-2,2-2c1.1,0,2,0.9,2,2S41.3,29.1,40.2,29.1z"/>
	<path class="st0" d="M66.9,21.1c-3.3,0-6,2.7-6,6s2.7,6,6,6s6-2.7,6-6S70.2,21.1,66.9,21.1z M66.9,29.1c-1.1,0-2-0.9-2-2s0.9-2,2-2
		s2,0.9,2,2S68,29.1,66.9,29.1z"/>
	<polygon class="st0" points="41,7 48.3,7 48.3,3 41,3 41,0 32.4,5 41,10 	"/>
	<polygon class="st0" points="39.8,47.4 32.5,47.4 32.5,51.4 39.8,51.4 39.8,54.4 48.4,49.4 39.8,44.4 	"/>
</g>
</svg>
