<?xml version="1.0" encoding="utf-8"?>
<!-- Generator: Adobe Illustrator 22.0.1, SVG Export Plug-In . SVG Version: 6.00 Build 0)  -->
<svg version="1.1" id="Lager_1" xmlns="http://www.w3.org/2000/svg" xmlns:xlink="http://www.w3.org/1999/xlink" x="0px" y="0px"
	 viewBox="0 0 63.1 44.8" style="enable-background:new 0 0 63.1 44.8;" xml:space="preserve">
<style type="text/css">
	.st0{fill:#181818;}
</style>
<title>Resurs 37</title>
<g id="Lager_2_1_">
	<g id="Lager_1-2">
		<rect x="10" y="13.3" transform="matrix(0.2307 -0.973 0.973 0.2307 -0.2788 29.1666)" class="st0" width="16.6" height="3"/>
		<polygon class="st0" points="11.7,20.8 7.4,14.7 11.6,7.8 14.2,9.4 11,14.6 14.1,19.1 		"/>
		<polygon class="st0" points="25,20.7 22.4,19.1 25.6,13.9 22.5,9.4 24.9,7.7 29.2,13.8 		"/>
		<path class="st0" d="M61.3,44.8H1.9C0.8,44.8,0,44,0,43V1.9c0-0.5,0.2-1,0.5-1.3C0.9,0.2,1.4,0,1.9,0h59.4c1,0,1.9,0.8,1.9,1.9
			c0,0,0,0,0,0V43c0,0.5-0.2,1-0.5,1.3C62.2,44.6,61.8,44.8,61.3,44.8z M3.7,41.1h55.7V3.7H3.7L3.7,41.1z"/>
		<path class="st0" d="M49.6,28.6c0.9,0,1.7,0.7,1.7,1.7S50.5,32,49.6,32s-1.7-0.7-1.7-1.7l0,0C47.9,29.4,48.7,28.6,49.6,28.6
			 M49.6,25.6c-2.6,0-4.7,2.1-4.7,4.7S47,35,49.6,35s4.7-2.1,4.7-4.7l0,0C54.2,27.7,52.2,25.6,49.6,25.6"/>
		<path class="st0" d="M41.3,15.2c0.9,0,1.7,0.7,1.7,1.7c0,0.9-0.7,1.7-1.7,1.7c-0.9,0-1.7-0.7-1.7-1.7c0,0,0,0,0,0
			C39.6,15.9,40.4,15.2,41.3,15.2 M41.3,12.2c-2.6,0-4.7,2.1-4.7,4.7c0,2.6,2.1,4.7,4.7,4.7c2.6,0,4.7-2.1,4.7-4.7c0,0,0,0,0,0
			C45.9,14.3,43.9,12.2,41.3,12.2"/>
		<path class="st0" d="M33.1,28.6c0.9,0,1.7,0.7,1.7,1.7S34,32,33.1,32s-1.7-0.7-1.7-1.7l0,0C31.5,29.4,32.2,28.6,33.1,28.6
			 M33.1,25.6c-2.6,0-4.7,2.1-4.7,4.7s2.1,4.7,4.7,4.7s4.7-2.1,4.7-4.7l0,0C37.8,27.7,35.7,25.6,33.1,25.6"/>
		<rect x="44.2" y="19.7" transform="matrix(0.8389 -0.5443 0.5443 0.8389 -5.4339 28.6464)" class="st0" width="3" height="7.7"/>
		<rect x="33.2" y="22" transform="matrix(0.5367 -0.8438 0.8438 0.5367 -2.6948 42.0216)" class="st0" width="7.4" height="3"/>
		<rect x="37" y="29.2" class="st0" width="8.6" height="3"/>
	</g>
</g>
</svg>
