<svg xmlns="http://www.w3.org/2000/svg" viewBox="0 0 56.44 73"><title>Resurs 153</title><g id="Lager_2" data-name="Lager 2"><g id="Lager_1-2" data-name="Lager 1"><path d="M10.13,7.25a15.92,15.92,0,0,0,0,16.94l3.39-2.12a11.93,11.93,0,0,1,0-12.7Z"/><path d="M3.65,3a24,24,0,0,0,0,25.44L7,26.31A20,20,0,0,1,7,5.12Z"/><rect x="20.23" y="3.72" width="3.92" height="24"/><path d="M42.92,9.37a11.93,11.93,0,0,1,0,12.7l3.39,2.12a15.92,15.92,0,0,0,0-16.94Z"/><path d="M52.79,3,49.4,5.12a20,20,0,0,1,0,21.19l3.39,2.13A24,24,0,0,0,52.79,3Z"/><rect x="32.29" y="3.72" width="3.92" height="24"/><rect x="26.25" width="4" height="73"/></g></g></svg>