<?xml version="1.0" encoding="utf-8"?>
<!-- Generator: Adobe Illustrator 22.0.1, SVG Export Plug-In . SVG Version: 6.00 Build 0)  -->
<svg version="1.1" id="Lager_1" xmlns="http://www.w3.org/2000/svg" xmlns:xlink="http://www.w3.org/1999/xlink" x="0px" y="0px"
	 viewBox="0 0 45 63" style="enable-background:new 0 0 45 63;" xml:space="preserve">
<style type="text/css">
	.st0{fill:#181818;}
</style>
<title>Resurs 81</title>
<g id="Lager_2_1_">
	<g id="Lager_1-2">
		<path class="st0" d="M26.5,37.5H16v-4h10.5c0.6,0,1.1-0.5,1.1-1.1c0-0.6-0.5-1.1-1.1-1.1h-8.7c-2.8,0.1-5.2-2.1-5.3-4.9
			s2.1-5.2,4.9-5.3c0.2,0,0.3,0,0.5,0h11.8v4H17.8c-0.6-0.1-1.1,0.4-1.2,1s0.4,1.1,1,1.2c0.1,0,0.1,0,0.2,0h8.7
			c2.8,0,5.1,2.3,5.1,5.1C31.6,35.2,29.3,37.5,26.5,37.5z"/>
		<rect x="20.2" y="16.9" class="st0" width="4" height="24.8"/>
		<path class="st0" d="M26.5,37.5H13.8v-4h12.7c0.6,0,1.1-0.5,1.1-1.1c0-0.6-0.5-1.1-1.1-1.1h-8.7c-2.8,0.1-5.2-2.1-5.3-4.9
			s2.1-5.2,4.9-5.3c0.2,0,0.3,0,0.5,0h11.8v4H17.8c-0.6-0.1-1.1,0.4-1.2,1s0.4,1.1,1,1.2c0.1,0,0.1,0,0.2,0h8.7
			c2.8,0,5.1,2.3,5.1,5.1C31.6,35.2,29.3,37.5,26.5,37.5z"/>
		<rect x="20.2" y="16.9" class="st0" width="4" height="24.8"/>
		<circle class="st0" cx="22.5" cy="51.9" r="2.2"/>
		<path class="st0" d="M40.5,4L40.5,4C40.8,4,41,4.2,41,4.5v54c0,0.3-0.2,0.5-0.5,0.5h-36C4.2,59,4,58.8,4,58.5v-54
			C4,4.2,4.2,4,4.5,4H40.5 M40.5,0h-36C2,0,0,2,0,4.5v54C0,61,2,63,4.5,63h36c2.5,0,4.5-2,4.5-4.5v-54C45,2,43,0,40.5,0
			C40.5,0,40.5,0,40.5,0z"/>
		<circle class="st0" cx="22.5" cy="51.9" r="2.2"/>
		<path class="st0" d="M40.5,4L40.5,4C40.8,4,41,4.2,41,4.5v54c0,0.3-0.2,0.5-0.5,0.5h-36C4.2,59,4,58.8,4,58.5v-54
			C4,4.2,4.2,4,4.5,4H40.5 M40.5,0h-36C2,0,0,2,0,4.5v54C0,61,2,63,4.5,63h36c2.5,0,4.5-2,4.5-4.5v-54C45,2,43,0,40.5,0
			C40.5,0,40.5,0,40.5,0z"/>
	</g>
</g>
</svg>
