<svg xmlns="http://www.w3.org/2000/svg" viewBox="0 0 45.87 76.73"><defs><style>.cls-1{fill:#181818;}</style></defs><title>Resurs 140</title><g id="Lager_2" data-name="Lager 2"><g id="Lager_1-2" data-name="Lager 1"><path class="cls-1" d="M27.8,24.75A18,18,0,0,0,45.26,2L45,.91,43.85.61A18,18,0,0,0,21.13,18.29a16,16,0,0,0-1.66-1.93A18.12,18.12,0,0,0,2,11.69L.91,12l-.3,1.12A18,18,0,0,0,21.08,35.57v2.17H21V45.5H16.18a6.86,6.86,0,1,0,0,13.72H21V65H9.84v4H21v7.74h4V69h4.82a6.89,6.89,0,0,0,0-13.77H25V50h.06V49.5h9.75v-4H25.08v-21A17.71,17.71,0,0,0,27.8,24.75ZM29.23,8.1A14.12,14.12,0,0,1,41.66,4.22,14,14,0,0,1,25.34,20.53,14.14,14.14,0,0,1,29.23,8.1Zm-8.7,23.51A14,14,0,0,1,4.22,15.3,14,14,0,0,1,20.53,31.61Zm9.31,27.61a2.89,2.89,0,0,1,0,5.77H25V59.22Zm-13.66-4a2.86,2.86,0,1,1,0-5.72H21v5.72Z"/></g></g></svg>