<svg xmlns="http://www.w3.org/2000/svg" viewBox="0 0 77.83 51.69"><defs><style>.cls-1{fill:#181818;}</style></defs><title>Resurs 105</title><g id="Lager_2" data-name="Lager 2"><g id="Lager_1-2" data-name="Lager 1"><path class="cls-1" d="M40.47,13.86V7.68L43.1,10.3l2.83-2.83L38.45,0,30.86,7.59l2.83,2.83,2.78-2.78v6.22H0V51.69H77.83V13.86ZM73.83,47.69H4V17.86H36.47v5.57H33.32a5.66,5.66,0,0,0,0,11.32h3.15v3.36H28.54v4h7.93v2.75h4V42.11h3.14a5.68,5.68,0,1,0,0-11.36H40.47V27.43h6.91v-4H40.47V17.86H73.83ZM36.47,27.43v3.32H33.32a1.66,1.66,0,0,1,0-3.32Zm4,7.32h3.14a1.68,1.68,0,1,1,0,3.36H40.47Z"/><path class="cls-1" d="M63,36.4A3.38,3.38,0,1,0,59.66,33,3.37,3.37,0,0,0,63,36.4Z"/><path class="cls-1" d="M14.38,29.65A3.38,3.38,0,1,0,17.75,33,3.38,3.38,0,0,0,14.38,29.65Z"/></g></g></svg>