<?xml version="1.0" encoding="utf-8"?>
<!-- Generator: Adobe Illustrator 22.0.1, SVG Export Plug-In . SVG Version: 6.00 Build 0)  -->
<svg version="1.1" id="Lager_1" xmlns="http://www.w3.org/2000/svg" xmlns:xlink="http://www.w3.org/1999/xlink" x="0px" y="0px"
	 viewBox="0 0 59 44" style="enable-background:new 0 0 59 44;" xml:space="preserve">
<style type="text/css">
	.st0{fill:#181818;}
</style>
<title>Resurs 62</title>
<g id="Lager_2_1_">
	<g id="Lager_1-2">
		<circle class="st0" cx="22" cy="22.3" r="3.1"/>
		<circle class="st0" cx="37" cy="22.3" r="3.1"/>
		<path class="st0" d="M42,44H17c-3.9,0-7-3.1-7-7V17c0-3.9,3.1-7,7-7h25c3.9,0,7,3.1,7,7v20C49,40.9,45.9,44,42,44z M17,14
			c-1.7,0-3,1.3-3,3v20c0,1.7,1.3,3,3,3h25c1.7,0,3-1.3,3-3V17c0-1.7-1.3-3-3-3H17z"/>
		<path class="st0" d="M52,36.5h-5v-4h5c1.7,0,3-1.3,3-3v-5c0-1.7-1.3-3-3-3h-5v-4h5c3.9,0,7,3.1,7,7v5C59,33.4,55.9,36.5,52,36.5z"
			/>
		<path class="st0" d="M12,36.5H7c-3.9,0-7-3.1-7-7v-5c0-3.9,3.1-7,7-7h5v4H7c-1.7,0-3,1.3-3,3v5c0,1.7,1.3,3,3,3h5V36.5z"/>
		<path class="st0" d="M39,12.6h-4V7c0-1.7-1.3-3-3-3h-5c-1.7,0-3,1.3-3,3v5.6h-4V7c0-3.9,3.1-7,7-7h5c3.9,0,7,3.1,7,7l0,0V12.6z"/>
		<rect x="22" y="30" class="st0" width="15" height="4"/>
		<circle class="st0" cx="22" cy="22.3" r="3.1"/>
		<circle class="st0" cx="37" cy="22.3" r="3.1"/>
		<path class="st0" d="M42,44H17c-3.9,0-7-3.1-7-7V17c0-3.9,3.1-7,7-7h25c3.9,0,7,3.1,7,7v20C49,40.9,45.9,44,42,44z M17,14
			c-1.7,0-3,1.3-3,3v20c0,1.7,1.3,3,3,3h25c1.7,0,3-1.3,3-3V17c0-1.7-1.3-3-3-3H17z"/>
		<path class="st0" d="M52,36.5h-5v-4h5c1.7,0,3-1.3,3-3v-5c0-1.7-1.3-3-3-3h-5v-4h5c3.9,0,7,3.1,7,7v5C59,33.4,55.9,36.5,52,36.5z"
			/>
		<path class="st0" d="M12,36.5H7c-3.9,0-7-3.1-7-7v-5c0-3.9,3.1-7,7-7h5v4H7c-1.7,0-3,1.3-3,3v5c0,1.7,1.3,3,3,3h5V36.5z"/>
		<path class="st0" d="M39,12.6h-4V7c0-1.7-1.3-3-3-3h-5c-1.7,0-3,1.3-3,3v5.6h-4V7c0-3.9,3.1-7,7-7h5c3.9,0,7,3.1,7,7l0,0V12.6z"/>
		<rect x="22" y="30" class="st0" width="15" height="4"/>
	</g>
</g>
</svg>
