<?xml version="1.0" encoding="utf-8"?>
<!-- Generator: Adobe Illustrator 22.0.1, SVG Export Plug-In . SVG Version: 6.00 Build 0)  -->
<svg version="1.1" id="Lager_1" xmlns="http://www.w3.org/2000/svg" xmlns:xlink="http://www.w3.org/1999/xlink" x="0px" y="0px"
	 viewBox="0 0 64 44.3" style="enable-background:new 0 0 64 44.3;" xml:space="preserve">
<style type="text/css">
	.st0{fill:#181818;}
</style>
<title>Resurs 31</title>
<g id="Lager_2_1_">
	<g id="Lager_1-2">
		<path class="st0" d="M4,4h56v36.3H4V4z M0,0L0,0v44.3h64V0H0z"/>
		<path class="st0" d="M9.7,8.7c-1,0-1.9,0.8-1.9,1.9s0.8,1.9,1.9,1.9s1.9-0.8,1.9-1.9l0,0C11.6,9.5,10.8,8.7,9.7,8.7"/>
		<path class="st0" d="M14.4,27.6v-1.8c1.1,0.7,2.4,1.1,3.7,1.1c1.5,0,2.3-0.6,2.3-1.5s-0.6-1.3-1.9-1.7l-0.9-0.3
			c-1.9-0.7-3.1-1.3-3.1-3.2s1.7-3.2,4-3.2c1,0,2,0.2,3,0.6v1.8c-0.9-0.5-2-0.7-3-0.7c-1.3,0-2.2,0.4-2.2,1.4s0.7,1.2,2,1.6l0.8,0.3
			c1.7,0.6,3.1,1.4,3.1,3.3s-1.7,3.3-4.1,3.3C16.8,28.6,15.5,28.3,14.4,27.6z"/>
		<path class="st0" d="M30.7,20.3v8.1h-1.6v-0.8c-0.5,0.7-1.4,1-2.2,1c-2.2,0-3.4-1.8-3.4-4v-0.5c0-2.2,1.2-4,3.4-4
			c0.9,0,1.7,0.3,2.2,1v-0.8L30.7,20.3z M27.1,21.9c-1.3,0-1.9,1-1.9,2.3v0.4c0,1.3,0.6,2.3,1.9,2.3c0.7,0,1.4-0.4,1.8-1v-3
			C28.6,22.2,27.9,21.8,27.1,21.9z"/>
		<path class="st0" d="M39.8,20.3v8.1h-1.6v-0.8c-0.5,0.7-1.4,1-2.2,1c-2.2,0-3.4-1.8-3.4-4v-0.5c0-2.2,1.2-4,3.4-4
			c0.9,0,1.7,0.3,2.2,1v-0.8L39.8,20.3z M36.3,21.9c-1.3,0-1.9,1-1.9,2.3v0.4c0,1.3,0.6,2.3,1.9,2.3c0.7,0,1.4-0.4,1.8-1v-3
			C37.7,22.2,37,21.8,36.3,21.9z"/>
		<path class="st0" d="M41.5,27.6v-1.8c1.1,0.7,2.4,1.1,3.7,1.1c1.6,0,2.3-0.6,2.3-1.5s-0.6-1.3-1.9-1.7l-0.9-0.3
			c-1.9-0.7-3.1-1.3-3.1-3.2s1.7-3.2,4-3.2c1,0,2,0.2,2.9,0.6v1.8c-0.9-0.5-2-0.7-3-0.7c-1.3,0-2.2,0.4-2.2,1.4s0.7,1.2,2,1.6
			l0.8,0.3c1.7,0.6,3.1,1.4,3.1,3.3s-1.7,3.3-4.1,3.3C43.9,28.6,42.6,28.3,41.5,27.6z"/>
	</g>
</g>
</svg>
