<?xml version="1.0" encoding="utf-8"?>
<!-- Generator: Adobe Illustrator 22.0.1, SVG Export Plug-In . SVG Version: 6.00 Build 0)  -->
<svg version="1.1" id="Lager_1" xmlns="http://www.w3.org/2000/svg" xmlns:xlink="http://www.w3.org/1999/xlink" x="0px" y="0px"
	 viewBox="0 0 51.7 60.8" style="enable-background:new 0 0 51.7 60.8;" xml:space="preserve">
<style type="text/css">
	.st0{fill:#181818;}
</style>
<title>Resurs 33</title>
<g id="Lager_2_1_">
	<g id="Lager_1-2">
		<path class="st0" d="M40.8,54.2c-4.7,0-8.5-1.3-11.4-3.9c-5.5-4.9-5.5-12.5-5.5-12.9h4c0,0.1,0.1,6.2,4.2,9.9
			c2.6,2.3,6.4,3.3,11.3,2.7l0.4,4C42.8,54.1,41.8,54.2,40.8,54.2z"/>
		<path class="st0" d="M18.5,60.1c-0.2-0.2-16.3-18.2-4.8-32.6c4.3-5.6,11.8-7.6,18.3-4.9c6.8,2.6,11.2,8.9,10.7,15.6l-4-0.2
			c0.4-5.7-3.8-10-8.2-11.6c-4.9-2.1-10.5-0.6-13.7,3.6c-9.4,11.8,4.5,27.3,4.7,27.5L18.5,60.1z"/>
		<path class="st0" d="M3.5,23.3L0,21.5C0.3,20.9,7.5,7.5,26,7.5s25.4,13.3,25.7,13.8l-3.6,1.8C47.9,22.7,42,11.5,26,11.5
			S3.6,23.2,3.5,23.3z"/>
		<path class="st0" d="M41.7,8.5C37,5.6,31.5,4,26,4C20.3,4,14.7,5.5,9.8,8.3L7.6,4.9C13.2,1.7,19.5,0,26,0c6.4,0,12.6,1.8,18,5.3
			L41.7,8.5z"/>
		<path class="st0" d="M34.5,60.8c-0.4-0.1-9.5-1.8-14.5-10c-3.2-5.1-4.2-11.2-2.8-15.8c0.7-2.6,2.5-4.8,5-6c2.2-1.1,4.7-1.2,7-0.2
			c2.6,1.3,4.5,3.6,5.4,6.3c0.2,0.6,0.3,1.3,0.5,1.9c0.7,3.6,1.5,6.2,5.3,6.2c1.6,0.1,3.2-0.6,4.2-1.9c1.3-1.9,1.7-4.3,1.1-6.6
			l-0.3-0.9c-1-3.8-2.7-10-13.3-14.3c-11.3-4.6-20,3.8-21.7,6.3L10,26.5c-2.1,2.9-6,8.3-1.5,22.3L4.6,50c-5-15.9-0.2-22.6,2.1-25.8
			C6.9,24,7,23.8,7.2,23.6c2.1-3.1,12.7-13.4,26.5-7.8c12.4,5.1,14.5,12.8,15.6,17c0.1,0.3,0.2,0.6,0.2,0.9
			c0.9,3.5,0.3,7.1-1.7,10.1c-1.7,2.3-4.5,3.6-7.4,3.5c-7.4,0-8.6-6.4-9.2-9.5c-0.1-0.5-0.2-0.9-0.3-1.4c-0.5-1.7-1.6-3.2-3.2-4
			C26.4,32,25,32,23.8,32.7c-1.4,0.7-2.4,2-2.7,3.5c-1.1,3.6-0.2,8.5,2.3,12.6c4.1,6.7,11.8,8.1,11.8,8.1L34.5,60.8z"/>
	</g>
</g>
</svg>
