<?xml version="1.0" encoding="utf-8"?>
<!-- Generator: Adobe Illustrator 22.0.1, SVG Export Plug-In . SVG Version: 6.00 Build 0)  -->
<svg version="1.1" id="Lager_1" xmlns="http://www.w3.org/2000/svg" xmlns:xlink="http://www.w3.org/1999/xlink" x="0px" y="0px"
	 viewBox="0 0 66.4 58.6" style="enable-background:new 0 0 66.4 58.6;" xml:space="preserve">
<style type="text/css">
	.st0{fill:#181818;}
</style>
<title>Resurs 41</title>
<g id="Lager_2_1_">
	<g id="Lager_1-2">
		<path class="st0" d="M54.4,38.6c4.4,0,8,3.6,8,8s-3.6,8-8,8s-8-3.6-8-8S50,38.6,54.4,38.6 M54.4,34.6c-6.6,0-12,5.4-12,12
			s5.4,12,12,12s12-5.4,12-12S61,34.6,54.4,34.6"/>
		<path class="st0" d="M33,4c4.4,0,8,3.6,8,8s-3.6,8-8,8s-8-3.6-8-8S28.6,4,33,4 M33,0c-6.6,0-12,5.4-12,12s5.4,12,12,12
			s12-5.4,12-12S39.6,0,33,0"/>
		<path class="st0" d="M12,38.6c4.4,0,8,3.6,8,8s-3.6,8-8,8s-8-3.6-8-8S7.6,38.6,12,38.6 M12,34.6c-6.6,0-12,5.4-12,12s5.4,12,12,12
			s12-5.4,12-12S18.6,34.6,12,34.6"/>
		<rect x="42.3" y="19.2" transform="matrix(0.8389 -0.5443 0.5443 0.8389 -8.7021 28.7983)" class="st0" width="4" height="19.8"/>
		<rect x="12.3" y="27" transform="matrix(0.5367 -0.8438 0.8438 0.5367 -14.3819 31.8101)" class="st0" width="19" height="4"/>
		<rect x="21.9" y="45.5" class="st0" width="22.3" height="4"/>
		<polygon class="st0" points="49.8,37.4 39.4,35.3 40.1,31.4 46.7,32.7 47.8,26.3 51.8,27 		"/>
		<polygon class="st0" points="25.7,31.5 24.4,24.9 18,26.2 17.2,22.3 27.5,20.2 29.6,30.7 		"/>
		<polygon class="st0" points="29.2,55.2 22.2,47.3 30.3,40.3 32.9,43.3 27.9,47.7 32.2,52.5 		"/>
	</g>
</g>
</svg>
