<svg xmlns="http://www.w3.org/2000/svg" viewBox="0 0 71.73 52.58"><title>Resurs 42</title><g id="Lager_2" data-name="Lager 2"><g id="Lager_1-2" data-name="Lager 1"><path d="M4,12.44H59.6v36H4Zm-4-4H0v44H63.6v-44Z"/><path d="M63.62,52.58H0V8.44L9.24,0H71.73V43.33ZM4,48.58H61.81l5.92-6.75V4H10.8L4,10.21Z"/><rect x="60.02" y="4.12" width="11.45" height="4" transform="translate(14.93 48.28) rotate(-45)"/><path d="M10.06,17.19a1.87,1.87,0,1,0,1.86,1.86,1.86,1.86,0,0,0-1.86-1.86"/><path d="M16.19,17.19a1.87,1.87,0,1,0,1.86,1.86,1.86,1.86,0,0,0-1.86-1.86"/><path d="M22.32,17.19a1.87,1.87,0,1,0,1.86,1.86,1.86,1.86,0,0,0-1.86-1.86"/></g></g></svg>