<?xml version="1.0" encoding="utf-8"?>
<!-- Generator: Adobe Illustrator 22.0.1, SVG Export Plug-In . SVG Version: 6.00 Build 0)  -->
<svg version="1.1" id="Lager_1" xmlns="http://www.w3.org/2000/svg" xmlns:xlink="http://www.w3.org/1999/xlink" x="0px" y="0px"
	 viewBox="0 0 68.1 49.3" style="enable-background:new 0 0 68.1 49.3;" xml:space="preserve">
<style type="text/css">
	.st0{fill:#181818;}
</style>
<title>Resurs 49</title>
<g id="Lager_2_1_">
	<g id="Lager_1-2">
		<path class="st0" d="M60.4,49.3H2c-1.1,0-2-0.9-2-2V8.6c0-0.5,0.2-1,0.6-1.4C1,6.8,1.5,6.6,2,6.6h36.7c1.1,0,2,0.9,2,2l0.1,19.2
			l19.5-0.1l0,0c1.1,0,2,0.9,2,2v17.7C62.3,48.5,61.5,49.3,60.4,49.3L60.4,49.3z M4,45.3h54.4V31.7l-19.5,0.1l0,0c-1.1,0-2-0.9-2-2
			l-0.1-19.2H4V45.3z"/>
		<path class="st0" d="M66.1,24.4H45.7c-1.1,0-2-0.9-2-2V2c0-1.1,0.9-2,2-2h20.4c1.1,0,2,0.9,2,2v20.4
			C68.1,23.5,67.2,24.4,66.1,24.4z M47.7,20.4h16.4V4H47.7L47.7,20.4z"/>
		<path class="st0" d="M8.3,13.8c-1,0-1.9,0.8-1.9,1.9c0,1,0.8,1.9,1.9,1.9s1.9-0.8,1.9-1.9c0,0,0,0,0,0
			C10.2,14.6,9.4,13.8,8.3,13.8"/>
		<path class="st0" d="M14.5,13.8c-1,0-1.9,0.8-1.9,1.9c0,1,0.8,1.9,1.9,1.9s1.9-0.8,1.9-1.9c0,0,0,0,0,0
			C16.3,14.6,15.5,13.8,14.5,13.8"/>
		<path class="st0" d="M20.6,13.8c-1,0-1.9,0.8-1.9,1.9c0,1,0.8,1.9,1.9,1.9c1,0,1.9-0.8,1.9-1.9c0,0,0,0,0,0
			C22.5,14.6,21.6,13.8,20.6,13.8"/>
		<path class="st0" d="M51.7,5.8c-1,0-1.9,0.8-1.9,1.9s0.8,1.9,1.9,1.9c1,0,1.9-0.8,1.9-1.9S52.7,5.8,51.7,5.8L51.7,5.8"/>
		<path class="st0" d="M57.8,5.8c-1,0-1.9,0.8-1.9,1.9s0.8,1.9,1.9,1.9c1,0,1.9-0.8,1.9-1.9S58.8,5.8,57.8,5.8L57.8,5.8"/>
	</g>
</g>
</svg>
