<?xml version="1.0" encoding="utf-8"?>
<!-- Generator: Adobe Illustrator 22.0.1, SVG Export Plug-In . SVG Version: 6.00 Build 0)  -->
<svg version="1.1" id="Lager_1" xmlns="http://www.w3.org/2000/svg" xmlns:xlink="http://www.w3.org/1999/xlink" x="0px" y="0px"
	 viewBox="0 0 64 44.3" style="enable-background:new 0 0 64 44.3;" xml:space="preserve">
<style type="text/css">
	.st0{fill:#181818;}
</style>
<title>Resurs 27</title>
<g id="Lager_2_1_">
	<g id="Lager_1-2">
		<path class="st0" d="M4,4h56v36.3H4V4z M0,0L0,0v44.3h64V0H0z"/>
		<path class="st0" d="M9.7,8.7c-1,0-1.9,0.8-1.9,1.9c0,1,0.8,1.9,1.9,1.9c1,0,1.9-0.8,1.9-1.9l0,0C11.6,9.5,10.8,8.7,9.7,8.7"/>
		<path class="st0" d="M15.9,8.7c-1,0-1.9,0.8-1.9,1.9c0,1,0.8,1.9,1.9,1.9c1,0,1.9-0.8,1.9-1.9l0,0C17.7,9.5,16.9,8.7,15.9,8.7"/>
		<path class="st0" d="M22,8.7c-1,0-1.9,0.8-1.9,1.9c0,1,0.8,1.9,1.9,1.9c1,0,1.9-0.8,1.9-1.9l0,0C23.9,9.5,23,8.7,22,8.7"/>
	</g>
</g>
</svg>
