<?xml version="1.0" encoding="utf-8"?>
<!-- Generator: Adobe Illustrator 22.0.1, SVG Export Plug-In . SVG Version: 6.00 Build 0)  -->
<svg version="1.1" id="Lager_1" xmlns="http://www.w3.org/2000/svg" xmlns:xlink="http://www.w3.org/1999/xlink" x="0px" y="0px"
	 viewBox="0 0 89.1 69.3" style="enable-background:new 0 0 89.1 69.3;" xml:space="preserve">
<style type="text/css">
	.st0{fill:#181818;}
</style>
<title>Resurs 50</title>
<g id="Lager_2_1_">
	<g id="Lager_1-2">
		<rect x="42.3" y="28.2" class="st0" width="4" height="5.7"/>
		<polygon class="st0" points="20.7,42 16.7,42 16.7,33 73.8,33 73.8,41.8 69.8,41.8 69.8,37 20.7,37 		"/>
		<path class="st0" d="M30.2,4h27.9v20.3H30.2V4z M26.2,0L26.2,0v28.3h35.9V0H26.2z"/>
		<path class="st0" d="M35.8,8.4c-1,0-1.9,0.8-1.9,1.9c0,1,0.8,1.9,1.9,1.9c1,0,1.9-0.8,1.9-1.9c0,0,0,0,0,0
			C37.7,9.3,36.8,8.4,35.8,8.4"/>
		<path class="st0" d="M41.9,8.4c-1,0-1.9,0.8-1.9,1.9c0,1,0.8,1.9,1.9,1.9c1,0,1.9-0.8,1.9-1.9c0,0,0,0,0,0
			C43.8,9.3,43,8.4,41.9,8.4"/>
		<path class="st0" d="M48.1,8.4c-1,0-1.9,0.8-1.9,1.9c0,1,0.8,1.9,1.9,1.9c1,0,1.9-0.8,1.9-1.9c0,0,0,0,0,0
			C49.9,9.3,49.1,8.4,48.1,8.4"/>
		<path class="st0" d="M57.2,45h27.9v20.3H57.2V45z M53.2,41L53.2,41v28.3h35.9V41H53.2z"/>
		<path class="st0" d="M62.8,49.4c-1,0-1.9,0.8-1.9,1.9c0,1,0.8,1.9,1.9,1.9c1,0,1.9-0.8,1.9-1.9c0,0,0,0,0,0
			C64.7,50.3,63.8,49.4,62.8,49.4"/>
		<path class="st0" d="M68.9,49.4c-1,0-1.9,0.8-1.9,1.9s0.8,1.9,1.9,1.9c1,0,1.9-0.8,1.9-1.9c0,0,0,0,0,0
			C70.8,50.3,70,49.4,68.9,49.4"/>
		<path class="st0" d="M75.1,49.4c-1,0-1.9,0.8-1.9,1.9s0.8,1.9,1.9,1.9c1,0,1.9-0.8,1.9-1.9c0,0,0,0,0,0
			C76.9,50.3,76.1,49.4,75.1,49.4"/>
		<path class="st0" d="M4,45h27.9v20.3H4V45z M0,41L0,41v28.3h35.9V41H0z"/>
		<path class="st0" d="M9.6,49.4c-1,0-1.9,0.8-1.9,1.9s0.8,1.9,1.9,1.9s1.9-0.8,1.9-1.9l0,0C11.5,50.3,10.7,49.4,9.6,49.4"/>
		<path class="st0" d="M15.8,49.4c-1,0-1.9,0.8-1.9,1.9c0,1,0.8,1.9,1.9,1.9c1,0,1.9-0.8,1.9-1.9l0,0C17.6,50.3,16.8,49.4,15.8,49.4
			"/>
		<path class="st0" d="M21.9,49.4c-1,0-1.9,0.8-1.9,1.9c0,1,0.8,1.9,1.9,1.9c1,0,1.9-0.8,1.9-1.9l0,0C23.8,50.3,22.9,49.4,21.9,49.4
			"/>
	</g>
</g>
</svg>
