<svg xmlns="http://www.w3.org/2000/svg" viewBox="0 0 76.29 72.53"><defs><style>.cls-1{fill:#181818;}</style></defs><title>Resurs 137</title><g id="Lager_2" data-name="Lager 2"><g id="Lager_1-2" data-name="Lager 1"><polygon class="cls-1" points="25.08 44.6 30.09 39.59 35.1 44.6 37.93 41.77 32.92 36.76 37.93 31.75 35.1 28.92 30.09 33.93 25.08 28.92 22.25 31.75 27.27 36.76 22.25 41.77 25.08 44.6"/><polygon class="cls-1" points="76.29 31.45 73.46 28.62 68.45 33.63 63.44 28.62 60.61 31.45 65.62 36.46 60.61 41.47 63.44 44.3 68.45 39.29 73.46 44.3 76.29 41.47 71.28 36.46 76.29 31.45"/><path class="cls-1" d="M37.29,10.8l1.12-4.9L25.07,10l10.24,9.49,1.07-4.69A24.27,24.27,0,0,1,25.07,60.56v4A28.27,28.27,0,0,0,37.29,10.8Z"/><path class="cls-1" d="M10,52.53a10,10,0,1,0,10,10A10,10,0,0,0,10,52.53Zm0,16a6,6,0,1,1,6-6A6,6,0,0,1,10,68.53Z"/><path class="cls-1" d="M10,0A10,10,0,1,0,20,10,10,10,0,0,0,10,0Zm0,16a6,6,0,1,1,6-6A6,6,0,0,1,10,16Z"/></g></g></svg>