<svg xmlns="http://www.w3.org/2000/svg" viewBox="0 0 71.33 40.67"><defs><style>.cls-1{fill:#181818;}</style></defs><title>Resurs 203</title><g id="Lager_2" data-name="Lager 2"><g id="Lager_1-2" data-name="Lager 1"><path class="cls-1" d="M65.33,36.67V2a2,2,0,0,0-2-2H8A2,2,0,0,0,6,2V36.67H0v4H71.33v-4ZM10,36.67V4H61.33V36.67Z"/><path class="cls-1" d="M33.76,13.54a11.41,11.41,0,0,1,0,12.11l3.23,2a15.17,15.17,0,0,0,0-16.16Z"/><path class="cls-1" d="M43.55,8l-3.24,2a19,19,0,0,1,0,20.2l3.24,2A22.92,22.92,0,0,0,43.55,8Z"/><circle class="cls-1" cx="28.34" cy="19.59" r="2.86"/></g></g></svg>