<svg xmlns="http://www.w3.org/2000/svg" viewBox="0 0 45.87 55.04"><defs><style>.cls-1{fill:#181818;}</style></defs><title>Resurs 95</title><g id="Lager_2" data-name="Lager 2"><g id="Lager_1-2" data-name="Lager 1"><path class="cls-1" d="M45.26,2,45,.91,43.85.61A18.13,18.13,0,0,0,26.4,5.28h0a18.13,18.13,0,0,0-5.27,13,16.76,16.76,0,0,0-1.66-1.93A18.12,18.12,0,0,0,2,11.69L.91,12l-.3,1.12A18.11,18.11,0,0,0,5.28,30.55h0a18,18,0,0,0,15.8,5V55h4V24.53a17.71,17.71,0,0,0,2.72.22A18,18,0,0,0,45.26,2ZM20.53,31.61A14.1,14.1,0,0,1,8.1,27.73h0A14.14,14.14,0,0,1,4.22,15.3,14,14,0,0,1,20.53,31.61Zm17.24-15a14.14,14.14,0,0,1-12.43,3.89A14,14,0,0,1,41.65,4.22,14.08,14.08,0,0,1,37.77,16.64Z"/></g></g></svg>