<svg xmlns="http://www.w3.org/2000/svg" viewBox="0 0 88.6 60.5"><defs><style>.cls-1{fill:#181818;}</style></defs><title>Resurs 88</title><g id="Lager_2" data-name="Lager 2"><g id="Lager_1-2" data-name="Lager 1"><path class="cls-1" d="M76.86,44.08H68.31a22,22,0,0,1,5.15,4h3.4a8,8,0,0,1,7.82,6.38l3.92-.81A12.05,12.05,0,0,0,76.86,44.08Z"/><path class="cls-1" d="M69.29,40A11.47,11.47,0,0,0,80.75,28.51V21.16A11.47,11.47,0,0,0,69.29,9.7H67.77a10.93,10.93,0,0,0-1.15.06,19.92,19.92,0,0,1,.81,4h1.86a7.47,7.47,0,0,1,7.46,7.46v7.35A7.47,7.47,0,0,1,69.29,36H67.77a7.47,7.47,0,0,1-2.18-.33,21.48,21.48,0,0,1-2.07,3.5,11.33,11.33,0,0,0,4.25.83Z"/><path class="cls-1" d="M22,44.08H11.74A12,12,0,0,0,0,53.65l3.92.81a8,8,0,0,1,7.82-6.38h5.08A22,22,0,0,1,22,44.08Z"/><path class="cls-1" d="M19.77,40h1.52a11.38,11.38,0,0,0,5.65-1.51A20.55,20.55,0,0,1,25,34.94a7.35,7.35,0,0,1-3.75,1H19.77a7.47,7.47,0,0,1-7.46-7.46V21.16a7.47,7.47,0,0,1,7.46-7.46h1.52A7.34,7.34,0,0,1,23.5,14a20.53,20.53,0,0,1,.75-3.93,11.61,11.61,0,0,0-3-.4H19.77A11.47,11.47,0,0,0,8.31,21.16v7.35A11.47,11.47,0,0,0,19.77,40Z"/><path class="cls-1" d="M69.93,51.61a16.9,16.9,0,0,0-4.76-3.53,16.55,16.55,0,0,0-7.39-1.75H32.51a16.56,16.56,0,0,0-7.4,1.75,16.9,16.9,0,0,0-4.76,3.53,16.92,16.92,0,0,0-4.24,8.08l1.66.34.3.07,2,.4a12.78,12.78,0,0,1,7-8.89,12.62,12.62,0,0,1,5.53-1.28H57.78a12.61,12.61,0,0,1,5.52,1.28,12.78,12.78,0,0,1,7,8.89l2-.4.31-.07,1.65-.34a16.44,16.44,0,0,0-1.65-4.51A17,17,0,0,0,69.93,51.61Z"/><path class="cls-1" d="M30.7,35a16.09,16.09,0,0,0,7.06,6.3,15.81,15.81,0,0,0,6.6,1.45H46.6a15.81,15.81,0,0,0,6.6-1.45,16.08,16.08,0,0,0,6.2-5,16,16,0,0,0,3.16-9.49V16s0-.08,0-.12A16,16,0,0,0,46.6,0H44.36A16,16,0,0,0,28.79,12.51,15.73,15.73,0,0,0,28.4,16V26.82A16.27,16.27,0,0,0,30.7,35ZM32.4,16a12,12,0,0,1,12-12H46.6A12,12,0,0,1,58.46,14.5a11.8,11.8,0,0,1,.1,1.46V26.82a12,12,0,0,1-12,12H44.36A12,12,0,0,1,32.7,29.43a11.8,11.8,0,0,1-.3-2.61V16Z"/></g></g></svg>