<svg xmlns="http://www.w3.org/2000/svg" viewBox="0 0 74.84 65.82"><defs><style>.cls-1{fill:#181818;}</style></defs><title>Resurs 141</title><g id="Lager_2" data-name="Lager 2"><g id="Lager_1-2" data-name="Lager 1"><path class="cls-1" d="M74.47,30a7.09,7.09,0,0,0-4.49-9l-4-1.35,3.12-9.37L65.26,9.1l-3.12,9.37L46.32,13.2h0a7.09,7.09,0,0,0-9,4.48l1.9.63-1.9-.63-2.68,8.05a3.09,3.09,0,1,1-5.86-1.95L34.69,6.12h0l0-.07A3.08,3.08,0,0,1,37.23,4l-.54-4a7,7,0,0,0-5.77,4.79L29.84,8h0l-2,6.11L15.21,10,14,13.75l12.59,4.19L25,22.51a7.1,7.1,0,0,0,4.49,9,6.94,6.94,0,0,0,2.23.36A7.11,7.11,0,0,0,38.47,27l2.68-8h0a3.08,3.08,0,0,1,3.9-2l.64-1.9L45.05,17l23.67,7.88a3.08,3.08,0,0,1,1.79,1.55,3,3,0,0,1,.16,2.36,3.09,3.09,0,0,1-3.9,2l-.24-.08-9.72-3.24-1.27,3.79,8.8,2.93h0l.92.31.24.08h0l2.09.7a3.09,3.09,0,0,1-2,5.86l-8.83-2.94-1.26,3.79,8.82,2.94a3.09,3.09,0,1,1-2,5.86l-.09.28a7.32,7.32,0,0,0-1.81-.91L53.59,47.8l-1.26,3.8,6.93,2.31a3.08,3.08,0,0,1,1.79,1.55,3.09,3.09,0,0,1-3.74,4.31L49.7,57.24A6.33,6.33,0,0,0,45.51,50l-1.38-.46a6.31,6.31,0,0,0-3.89,0,7.44,7.44,0,0,0-.31-.72,6.42,6.42,0,0,0-3.74-3.25l-1.06-.35A6.45,6.45,0,0,0,32,45a7,7,0,0,0-4.81-6,7,7,0,0,0-5.35.38A7.09,7.09,0,0,0,19.74,41,6.49,6.49,0,0,0,17,39.2l-1-.32A6.54,6.54,0,0,0,7.81,43l-.08.25L1.26,41.1,0,44.9l6.46,2.15-.08.25a6.54,6.54,0,0,0,4.13,8.25l1,.32a6.4,6.4,0,0,0,2.06.34,6.49,6.49,0,0,0,2.88-.68,7,7,0,0,0,4,3.51l.06,0a7.05,7.05,0,0,0,2.21.36,6.92,6.92,0,0,0,3-.7s0,.05,0,.08a6.39,6.39,0,0,0,3.74,3.25l1.06.35a6.24,6.24,0,0,0,2,.34,6.47,6.47,0,0,0,2.84-.67A6.23,6.23,0,0,0,39,65l1.38.46a6.29,6.29,0,0,0,8-4l.15-.45L56,63.56a7.07,7.07,0,0,0,9-8.87,7.05,7.05,0,0,0,4.64-10.15A7.06,7.06,0,0,0,73,35a7.13,7.13,0,0,0-1-1.48A7,7,0,0,0,74.47,30Zm-61.73,22-1-.32a2.54,2.54,0,0,1-1.6-3.2l1.43-4.28a2.53,2.53,0,0,1,3.19-1.6l1,.32a2.53,2.53,0,0,1,1.6,3.19l-1.33,4h0l-.1.28A2.53,2.53,0,0,1,12.74,52.08Zm11.35,3a3,3,0,0,1-2.3.17l-.06,0a3,3,0,0,1-1.9-3.79l1.33-4h0l.92-2.76A3,3,0,0,1,23.59,43,3.05,3.05,0,0,1,26,42.81a3,3,0,0,1,1.9,3.8l-.91,2.72h0l-1.35,4A3,3,0,0,1,24.09,55.1Zm9.65,3.38a2.44,2.44,0,0,1-1.89.14l-1.06-.35h0a2.51,2.51,0,0,1-1.56-3.14l.86-2.6.65-1.93A2.41,2.41,0,0,1,32,49.17a2.43,2.43,0,0,1,1.12-.27,2.27,2.27,0,0,1,.77.13l1.06.35a2.5,2.5,0,0,1,1.43,1.24,2.46,2.46,0,0,1,.14,1.9L35,57.05A2.48,2.48,0,0,1,33.74,58.48Zm12-1.73-1.17,3.48a2.26,2.26,0,0,1-1.16,1.34,2.34,2.34,0,0,1-1.76.13l-1.37-.46a2.33,2.33,0,0,1-1.34-1.16,2.3,2.3,0,0,1-.13-1.76l1.16-3.49A2.31,2.31,0,0,1,41.1,53.5a2.27,2.27,0,0,1,1.77-.13l1.37.45A2.33,2.33,0,0,1,45.58,55,2.37,2.37,0,0,1,45.71,56.75Z"/></g></g></svg>