<svg xmlns="http://www.w3.org/2000/svg" viewBox="0 0 58.06 60.5"><defs><style>.cls-1{fill:#181818;}</style></defs><title>Resurs 87</title><g id="Lager_2" data-name="Lager 2"><g id="Lager_1-2" data-name="Lager 1"><path class="cls-1" d="M54.14,60.5A12.79,12.79,0,0,0,41.67,50.33H16.4A12.79,12.79,0,0,0,3.92,60.5L0,59.69A16.82,16.82,0,0,1,16.4,46.33H41.67A16.81,16.81,0,0,1,58.06,59.69Z"/><path class="cls-1" d="M30.15,42.78H27.91a16,16,0,0,1-16-16V16a16,16,0,0,1,16-16h2.24a16,16,0,0,1,16,16V26.82A16,16,0,0,1,30.15,42.78ZM27.91,4A12,12,0,0,0,16,16V26.82a12,12,0,0,0,12,12h2.24a12,12,0,0,0,12-12V16a12,12,0,0,0-12-12Z"/></g></g></svg>