<?xml version="1.0" encoding="utf-8"?>
<!-- Generator: Adobe Illustrator 22.0.1, SVG Export Plug-In . SVG Version: 6.00 Build 0)  -->
<svg version="1.1" id="Lager_1" xmlns="http://www.w3.org/2000/svg" xmlns:xlink="http://www.w3.org/1999/xlink" x="0px" y="0px"
	 viewBox="0 0 64 45.5" style="enable-background:new 0 0 64 45.5;" xml:space="preserve">
<style type="text/css">
	.st0{fill:#181818;}
</style>
<title>Resurs 44</title>
<g id="Lager_2_1_">
	<g id="Lager_1-2">
		<path class="st0" d="M62,45.5H2c-1.1,0-2-0.9-2-2V2c0-0.5,0.2-1,0.6-1.4C1,0.2,1.5,0,2,0h60c1.1,0,2,0.9,2,2v41.5
			C64,44.6,63.1,45.5,62,45.5z M54.9,41.5H60V4H4v37.5H54.9z"/>
		<path class="st0" d="M46.9,12.9c2,0,3.5,1.6,3.5,3.5S48.8,20,46.9,20c-2,0-3.5-1.6-3.5-3.5S44.9,12.9,46.9,12.9L46.9,12.9
			 M46.9,8.9c-4.2,0-7.5,3.4-7.5,7.5s3.4,7.5,7.5,7.5s7.5-3.4,7.5-7.5S51,8.9,46.9,8.9L46.9,8.9"/>
		<polygon class="st0" points="46.8,10 46.8,16.4 51.9,16.4 51.6,12.2 		"/>
		<path class="st0" d="M12.8,36.5l-3.9-0.8c0.8-3.6,3.9-6.1,7.5-6.1h9.8c3.6,0,6.8,2.6,7.5,6.1l-3.9,0.8c-0.4-1.7-1.9-2.9-3.6-2.9
			h-9.8C14.7,33.6,13.2,34.8,12.8,36.5z"/>
		<path class="st0" d="M21.8,27h-0.9c-4.1,0-7.4-3.3-7.4-7.4v-4.2c0-4.1,3.3-7.4,7.4-7.4h0.9c4.1,0,7.4,3.3,7.4,7.4v4.2
			C29.1,23.7,25.9,27,21.8,27C21.8,27,21.8,27,21.8,27z M20.9,12c-1.9,0-3.4,1.5-3.4,3.4c0,0,0,0,0,0v4.2c0,1.9,1.5,3.4,3.4,3.4
			c0,0,0,0,0,0h0.9c1.9,0,3.4-1.5,3.4-3.4v-4.2c0-1.9-1.5-3.4-3.4-3.4c0,0,0,0,0,0H20.9z"/>
		<rect x="38.9" y="26.8" class="st0" width="15.9" height="4"/>
		<rect x="38.9" y="32.9" class="st0" width="8.9" height="4"/>
	</g>
</g>
</svg>
