<?xml version="1.0" encoding="utf-8"?>
<!-- Generator: Adobe Illustrator 22.0.1, SVG Export Plug-In . SVG Version: 6.00 Build 0)  -->
<svg version="1.1" id="Lager_1" xmlns="http://www.w3.org/2000/svg" xmlns:xlink="http://www.w3.org/1999/xlink" x="0px" y="0px"
	 viewBox="0 0 64 45.5" style="enable-background:new 0 0 64 45.5;" xml:space="preserve">
<style type="text/css">
	.st0{fill:#181818;}
</style>
<title>Resurs 48</title>
<g id="Lager_2_1_">
	<g id="Lager_1-2">
		<polygon class="st0" points="43.4,29.3 37.9,23.8 40.8,20.9 43.4,23.6 51.5,15.6 54.3,18.4 		"/>
		<path class="st0" d="M62,45.5H2c-1.1,0-2-0.9-2-2V2c0-0.5,0.2-1,0.6-1.4C1,0.2,1.5,0,2,0h60c1.1,0,2,0.9,2,2v41.5
			C64,44.6,63.1,45.5,62,45.5z M54.9,41.5H60V4H4v37.5H54.9z"/>
		<path class="st0" d="M29.8,37.4c-0.3-1.7-1.8-3-3.6-3h-9.8c-1.8,0-3.3,1.3-3.6,3L9,36.6c0.7-3.6,3.9-6.1,7.5-6.1h9.8
			c3.6,0,6.8,2.6,7.5,6.1L29.8,37.4z"/>
		<path class="st0" d="M21.8,27.9h-0.9c-4.1,0-7.4-3.3-7.4-7.4v-4.2c0-4.1,3.3-7.4,7.4-7.4h0.9c4.1,0,7.4,3.3,7.4,7.4v4.2
			C29.2,24.6,25.9,27.9,21.8,27.9z M20.9,12.9c-1.9,0-3.4,1.5-3.4,3.4v4.2c0,1.9,1.5,3.4,3.4,3.4h0.9c1.9,0,3.4-1.5,3.4-3.4v-4.1
			c0-1.9-1.5-3.4-3.4-3.4L20.9,12.9z"/>
	</g>
</g>
</svg>
