<?xml version="1.0" encoding="utf-8"?>
<!-- Generator: Adobe Illustrator 22.0.1, SVG Export Plug-In . SVG Version: 6.00 Build 0)  -->
<svg version="1.1" id="Lager_1" xmlns="http://www.w3.org/2000/svg" xmlns:xlink="http://www.w3.org/1999/xlink" x="0px" y="0px"
	 viewBox="0 0 51.3 50" style="enable-background:new 0 0 51.3 50;" xml:space="preserve">
<style type="text/css">
	.st0{fill:#181818;}
</style>
<title>Resurs 36</title>
<g id="Lager_2_1_">
	<g id="Lager_1-2">
		<path class="st0" d="M40.3,37.7h-6.8v-4h6.8c3.9,0,7-3.1,7-7c0-3.2-2.2-6-5.3-6.8l-1.7-0.4l0.2-1.8c0.9-6.6-3.6-12.6-10.2-13.6
			C29.7,4,29.1,4,28.5,4c-6.2,0.1-11.4,4.8-12,11.1l-0.2,2.2l-2.2-0.4c-0.5-0.1-1-0.2-1.6-0.2c-4.7,0-8.5,3.8-8.5,8.5
			s3.8,8.5,8.5,8.5h7v4h-7C5.6,37.6,0.1,32,0.2,25.1s5.7-12.4,12.6-12.4C14.8,4,23.4-1.4,32.1,0.6c7.2,1.7,12.4,8.1,12.5,15.5
			c0,0.2,0,0.3,0,0.5c5.6,2.4,8.2,8.8,5.8,14.4C48.7,35.1,44.7,37.7,40.3,37.7z"/>
		<rect x="24.5" y="26.4" class="st0" width="4" height="19.4"/>
		<polygon class="st0" points="22.4,31.5 19.6,28.7 26.3,22 32.8,28.5 30,31.3 26.3,27.6 		"/>
		<polygon class="st0" points="26.5,50 19.8,43.3 22.6,40.5 26.5,44.4 30.2,40.7 33,43.5 		"/>
	</g>
</g>
</svg>
