<?xml version="1.0" encoding="utf-8"?>
<!-- Generator: Adobe Illustrator 22.0.1, SVG Export Plug-In . SVG Version: 6.00 Build 0)  -->
<svg version="1.1" id="Lager_1" xmlns="http://www.w3.org/2000/svg" xmlns:xlink="http://www.w3.org/1999/xlink" x="0px" y="0px"
	 viewBox="0 0 35 64" style="enable-background:new 0 0 35 64;" xml:space="preserve">
<style type="text/css">
	.st0{fill:#181818;}
</style>
<title>Resurs 63</title>
<g id="Lager_2_1_">
	<g id="Lager_1-2">
		<path class="st0" d="M5,19h25c0.6,0,1,0.4,1,1v25c0,0.6-0.4,1-1,1H5c-0.6,0-1-0.4-1-1V20C4,19.4,4.4,19,5,19L5,19 M5,15
			c-2.8,0-5,2.2-5,5v25c0,2.8,2.2,5,5,5h25c2.8,0,5-2.2,5-5V20c0-2.8-2.2-5-5-5H5z"/>
		<path class="st0" d="M27,64H8V46.5h19V64z M12,60h11v-9.5H12V60z"/>
		<path class="st0" d="M27,18.5H8V0h19V18.5z M12,14.5h11V4H12V14.5z"/>
		<path class="st0" d="M5,19h25c0.6,0,1,0.4,1,1v25c0,0.6-0.4,1-1,1H5c-0.6,0-1-0.4-1-1V20C4,19.4,4.4,19,5,19L5,19 M5,15
			c-2.8,0-5,2.2-5,5v25c0,2.8,2.2,5,5,5h25c2.8,0,5-2.2,5-5V20c0-2.8-2.2-5-5-5H5z"/>
	</g>
</g>
</svg>
